<svg width="310" height="38" viewBox="0 0 310 38" fill="none" xmlns="http://www.w3.org/2000/svg">
<path d="M159.131 28.0458C163.01 28.563 164.763 30.2009 164.763 33.0888C164.767 33.7527 164.633 34.4103 164.371 35.0203C164.109 35.6303 163.724 36.1797 163.24 36.6341C162.756 37.0886 162.183 37.4382 161.558 37.6613C160.932 37.8844 160.268 37.9761 159.605 37.9306C155.985 37.9306 152.422 37.9306 148.743 37.9306C145.554 37.9306 143.384 35.9766 143.313 33.175C143.241 30.3733 145.238 28.4625 148.37 28.2038C148.54 28.1844 148.708 28.1507 148.873 28.1033C141.301 23.9367 138.227 17.6869 140.252 10.575C141.117 7.41544 143.035 4.64622 145.69 2.72633C148.344 0.806437 151.574 -0.148835 154.846 0.0188451C158.117 0.186525 161.233 1.46709 163.677 3.64829C166.121 5.82948 167.746 8.78033 168.283 12.0117C169.533 18.5346 166.013 24.8993 159.131 28.0458Z" fill="#040404"/>
<path d="M199.13 3.95161C202.636 3.95161 206.127 3.95161 209.633 3.85104C210.538 3.85104 210.954 4.4401 211.443 4.98606C212.911 6.6244 213.983 8.578 214.577 10.6962C215.171 12.8145 215.271 15.0408 214.868 17.2036C214.465 19.3664 213.572 21.4078 212.255 23.1705C210.939 24.9332 209.236 26.3702 207.276 27.3705C206.845 27.6004 206.386 27.8016 205.94 28.0171C206.041 28.4194 206.285 28.2757 206.486 28.29C207.144 28.2692 207.8 28.3825 208.413 28.6229C209.026 28.8634 209.584 29.226 210.052 29.6888C210.521 30.1516 210.89 30.7048 211.138 31.3148C211.386 31.9248 211.508 32.5789 211.495 33.2373C211.482 33.8957 211.336 34.5447 211.065 35.1447C210.793 35.7447 210.403 36.2833 209.917 36.7277C209.431 37.172 208.859 37.5129 208.238 37.7296C207.616 37.9463 206.956 38.0342 206.299 37.9881C204.116 37.9881 201.989 37.9881 199.748 37.9881H195.624C192.234 37.9881 190.05 36.2065 189.877 33.3618C189.705 30.517 191.831 28.4912 195.624 28.1895C189.964 25.4309 186.501 21.3506 186.386 15.0145C187.334 14.5979 187.421 15.4312 187.722 15.9484C188.32 19.0018 189.822 21.805 192.033 23.9942C194.441 26.2708 197.638 27.5256 200.953 27.4953C204.267 27.465 207.441 26.1519 209.807 23.8316C212.174 21.5114 213.55 18.3644 213.646 15.0514C213.742 11.7384 212.551 8.51708 210.322 6.06362C210.026 5.71737 209.652 5.44652 209.23 5.27341C206.429 4.89986 203.627 5.27341 200.84 5.07227C200.136 5.02917 198.972 5.43145 199.13 3.95161Z" fill="#040404"/>
<path d="M293.826 0.0724012C296.87 -0.0493582 299.915 0.279867 302.863 1.04939C307.317 2.35682 309.386 4.82802 309.63 9.45434C309.838 12.8487 309.262 16.2454 307.949 19.3822C304.86 26.6665 298.05 28.7929 292.303 28.1751C283.84 27.27 278.927 22.0546 278.108 13.4916C277.954 12.0602 277.916 10.6189 277.993 9.18136C277.973 7.303 278.605 5.47582 279.781 4.01129C280.958 2.54675 282.605 1.53552 284.444 1.14996C287.497 0.311584 290.662 -0.0518557 293.826 0.0724012Z" fill="#040404"/>
<path d="M107.423 28.8935C105.221 28.8993 103.047 28.3947 101.073 27.4192C99.0981 26.4438 97.3765 25.0241 96.043 23.2716C94.7094 21.5191 93.8002 19.4813 93.3865 17.3183C92.9728 15.1553 93.066 12.9258 93.6587 10.8049C94.0452 9.48407 94.5253 8.19251 95.0955 6.94004C95.4259 6.13546 95.857 5.40272 95.311 4.54067C95.311 4.4401 95.1673 4.31079 95.1817 4.22459C95.7995 2.44303 97.7104 2.09821 98.8741 0.934447C98.9586 0.824199 99.0674 0.734881 99.192 0.673411C99.3165 0.61194 99.4536 0.579967 99.5925 0.579967C99.7314 0.579967 99.8685 0.61194 99.993 0.673411C100.118 0.734881 100.226 0.824199 100.311 0.934447C100.53 1.19742 100.835 1.37373 101.172 1.43167C101.509 1.48961 101.856 1.42538 102.15 1.25053C103.85 0.542745 105.674 0.17836 107.516 0.17836C109.358 0.17836 111.182 0.542745 112.882 1.25053C113.285 1.40857 113.744 1.75339 114.132 1.25053C115.167 0.0149314 116 0.762038 116.877 1.43731C117.509 1.9258 118.155 2.41429 118.83 2.87405C119.506 3.33381 120.152 3.93724 119.534 4.94296C119.103 5.66133 119.621 6.27913 119.894 6.88257C121.575 10.6325 122.537 14.4398 121.33 18.5489C120.455 21.5522 118.622 24.1876 116.112 26.0547C113.602 27.9217 110.551 28.9185 107.423 28.8935Z" fill="#040404"/>
<path d="M22.1664 2.57233C29.5512 6.46591 30.988 17.8018 24.9249 24.2959C23.1714 26.2125 20.9172 27.6009 18.4165 28.3044C17.5544 28.5487 17.0947 28.8935 17.1521 29.7412C17.2096 30.5888 16.7642 30.8331 15.9884 30.79C15.1319 30.7397 14.2731 30.7397 13.4166 30.79C12.2672 30.79 11.3477 30.79 11.4626 29.2527C11.4626 28.2469 10.5431 28.3762 9.95406 28.1751C7.18715 27.282 4.75632 25.5704 2.98273 23.2665C1.20915 20.9627 0.176288 18.1749 0.0206149 15.2716C-0.135059 12.3683 0.593783 9.48604 2.11084 7.00572C3.6279 4.52539 5.86177 2.5637 8.51732 1.37984C11.7502 -0.140871 15.4532 -0.321631 18.8188 0.876978C18.9504 1.00646 19.0325 1.17794 19.0509 1.36166C19.0693 1.54537 19.0227 1.72972 18.9193 1.8827C18.2728 2.39993 17.5975 2.06947 16.951 1.8827C13.6905 1.068 10.2406 1.56365 7.34135 3.26329C4.4421 4.96293 2.32447 7.73119 1.44275 10.9742C0.561031 14.2172 0.985462 17.6766 2.62499 20.6102C4.26452 23.5439 6.98854 25.7182 10.2127 26.6665C10.8378 26.781 11.4299 27.0322 11.9466 27.4023C12.4632 27.7724 12.8916 28.2522 13.2011 28.8073C13.3439 28.9955 13.531 29.1456 13.7457 29.2442C13.9604 29.3429 14.1961 29.3871 14.432 29.3729C14.6679 29.3587 14.8966 29.2865 15.0979 29.1628C15.2992 29.0391 15.4669 28.8676 15.5861 28.6636C15.8523 28.1888 16.2147 27.7749 16.6501 27.4483C17.0856 27.1217 17.5844 26.8897 18.1148 26.7671C20.7348 25.9975 23.0353 24.4004 24.6721 22.2145C26.3089 20.0287 27.194 17.3717 27.195 14.641C27.2376 13.0574 26.9677 11.481 26.4007 10.0019C25.8337 8.5227 24.9807 7.1698 23.8905 6.02052C23.0428 5.08664 21.8934 4.38263 21.3618 3.23324C21.448 2.73038 21.448 2.24188 22.1664 2.57233Z" fill="#040404"/>
<path d="M247.232 3.87977C249.186 3.87977 251.155 3.98034 253.094 3.87977C253.776 3.8435 254.458 3.95285 255.095 4.20058C255.732 4.4483 256.308 4.82871 256.787 5.31651C258.551 6.89986 259.897 8.89532 260.703 11.1249C261.509 13.3545 261.751 15.749 261.407 18.0948C261.063 20.4406 260.144 22.6649 258.732 24.5692C257.319 26.4735 255.458 27.9987 253.313 29.0088C251.168 30.0188 248.806 30.4824 246.438 30.3581C244.071 30.2338 241.771 29.5255 239.743 28.2964C237.716 27.0673 236.024 25.3556 234.819 23.3138C233.614 21.2721 232.933 18.9639 232.836 16.595C232.73 14.3059 233.181 12.0254 234.149 9.94856C235.118 7.87175 236.575 6.06053 238.396 4.66998C239.048 4.10494 239.891 3.81175 240.753 3.85104C242.879 3.90851 245.063 3.8654 247.232 3.87977Z" fill="#040404"/>
<path d="M61.0016 3.8654C63.7601 3.8654 66.5187 3.8654 69.2628 3.8654C69.7364 3.83584 70.21 3.92402 70.6412 4.12208C71.0724 4.32014 71.4479 4.6219 71.734 5.00043C73.5454 7.07963 74.7202 9.63618 75.1181 12.3649C75.516 15.0936 75.1202 17.8792 73.978 20.389C72.8358 22.8989 70.9955 25.0271 68.6767 26.5195C66.3579 28.0119 63.6585 28.8055 60.901 28.8055C58.1434 28.8055 55.4441 28.0119 53.1253 26.5195C50.8065 25.0271 48.9661 22.8989 47.824 20.389C46.6818 17.8792 46.286 15.0936 46.6839 12.3649C47.0818 9.63618 48.2566 7.07963 50.0679 5.00043C50.3523 4.61452 50.7287 4.30588 51.1628 4.10262C51.5969 3.89936 52.075 3.80793 52.5535 3.83667C55.3695 3.92287 58.1855 3.8654 61.0016 3.8654Z" fill="#040404"/>
<path d="M187.363 15.9915C186.961 15.7185 187.105 14.8852 186.343 14.9571C186.212 13.0393 186.492 11.1157 187.163 9.31454C187.835 7.51339 188.882 5.87612 190.237 4.51194C190.419 4.29209 190.651 4.11789 190.913 4.00317C191.175 3.88844 191.46 3.83635 191.745 3.85104C194.202 3.85104 196.659 3.92287 199.13 3.95161C199.317 4.89986 200.078 4.59814 200.639 4.61251C203.153 4.61251 205.682 4.61251 208.196 4.61251C208.742 4.61251 209.345 4.4401 209.819 4.91423C209.13 5.6326 208.225 5.44582 207.391 5.46019C202.866 5.46019 198.354 5.53203 193.829 5.46019C193.032 5.39704 192.235 5.57065 191.537 5.95921C190.839 6.34777 190.272 6.93393 189.906 7.64404C188.685 9.52326 187.995 11.6976 187.909 13.937C187.909 14.641 188.01 15.4312 187.363 15.9915Z" fill="#101010"/>
<path d="M22.1664 2.57233C21.721 2.57233 21.563 2.90279 21.5486 3.30507C20.4423 3.2045 19.3504 3.0752 18.8188 1.86833V0.876978C20.0699 1.12182 21.2287 1.70866 22.1664 2.57233Z" fill="#181818"/>
<path d="M154.045 27.7584C150.524 27.7584 147.148 26.3598 144.658 23.8701C142.168 21.3805 140.77 18.0038 140.77 14.4829C140.77 10.9621 142.168 7.58538 144.658 5.09574C147.148 2.60609 150.524 1.20743 154.045 1.20743C157.566 1.20743 160.943 2.60609 163.432 5.09574C165.922 7.58538 167.321 10.9621 167.321 14.4829C167.321 18.0038 165.922 21.3805 163.432 23.8701C160.943 26.3598 157.566 27.7584 154.045 27.7584Z" fill="#FDFDFD"/>
<path d="M154.088 29.3532C156.028 29.3532 157.982 29.3532 159.936 29.3532C160.434 29.335 160.931 29.42 161.395 29.6029C161.86 29.7858 162.281 30.0627 162.633 30.4162C162.985 30.7696 163.26 31.192 163.442 31.6569C163.623 32.1217 163.706 32.619 163.686 33.1175C163.706 33.6072 163.624 34.0958 163.447 34.5526C163.27 35.0095 163 35.4249 162.655 35.7728C162.31 36.1207 161.896 36.3937 161.441 36.5746C160.985 36.7555 160.497 36.8405 160.008 36.8243C156.109 36.8243 152.206 36.8243 148.298 36.8243C147.319 36.8243 146.38 36.4353 145.687 35.7428C144.995 35.0503 144.606 34.1112 144.606 33.1319C144.606 32.1526 144.995 31.2134 145.687 30.5209C146.38 29.8285 147.319 29.4394 148.298 29.4394C149.275 29.4394 150.252 29.4394 151.172 29.4394L154.088 29.3532Z" fill="#FCFCFC"/>
<path d="M187.363 15.9915C187.031 12.361 188.146 8.74623 190.467 5.93431C190.717 5.59664 191.048 5.32747 191.43 5.15168C191.811 4.97589 192.231 4.89917 192.65 4.92859C198.397 4.92859 204.144 4.92859 209.891 4.92859C211.904 6.8545 213.254 9.37015 213.744 12.1126C214.235 14.855 213.842 17.6824 212.621 20.1868C211.418 22.6947 209.457 24.7618 207.017 26.0966C204.576 27.4314 201.778 27.9668 199.017 27.6272C196.256 27.2877 193.671 26.0903 191.627 24.2038C189.583 22.3174 188.182 19.837 187.622 17.1122L187.363 15.9915Z" fill="#FCFCFC"/>
<path d="M200.524 36.7668C198.627 36.7668 196.731 36.7668 194.849 36.7668C193.869 36.7668 192.93 36.3778 192.238 35.6853C191.545 34.9929 191.156 34.0537 191.156 33.0744C191.156 32.0951 191.545 31.1559 192.238 30.4635C192.93 29.771 193.869 29.382 194.849 29.382C198.742 29.382 202.65 29.382 206.544 29.382C207.523 29.382 208.462 29.771 209.155 30.4635C209.847 31.1559 210.236 32.0951 210.236 33.0744C210.236 34.0537 209.847 34.9929 209.155 35.6853C208.462 36.3778 207.523 36.7668 206.544 36.7668C205.509 36.7668 204.475 36.7668 203.44 36.7668H200.524Z" fill="#FCFCFC"/>
<path d="M281.887 3.64989C284.116 2.21413 286.706 1.43721 289.358 1.40857C293.755 0.877139 298.212 1.13501 302.518 2.17005C306.67 3.30507 308.366 5.53203 308.509 9.85662C308.626 12.6134 308.221 15.3674 307.317 17.9742C306.586 20.3203 305.202 22.4095 303.327 23.9973C301.451 25.5851 299.163 26.6057 296.728 26.9395C294.03 27.5652 291.211 27.436 288.582 26.566C286.22 25.6852 284.136 24.1903 282.545 22.2355C280.954 20.2807 279.913 17.9368 279.53 15.4456C279.038 13.1425 278.916 10.7756 279.171 8.43425C279.875 8.43425 279.846 9.09515 280.105 9.49744C281.24 12.4715 282.547 13.4485 285.205 13.4916C286.132 13.5802 287.063 13.3663 287.858 12.882C288.653 12.3977 289.27 11.669 289.616 10.8049C290.048 9.94956 290.216 8.98576 290.101 8.03474C289.986 7.08372 289.593 6.18797 288.97 5.46019C288.382 4.74274 287.604 4.20573 286.724 3.91091C285.845 3.61608 284.9 3.57541 283.999 3.79357C283.438 3.90851 282.95 4.26769 282.332 4.18149C282.073 4.09528 281.858 3.98034 281.887 3.64989Z" fill="#FBFBFB"/>
<path d="M281.887 3.64989L282.274 3.96598C282.304 4.16413 282.281 4.36648 282.207 4.55297C282.134 4.73946 282.014 4.90362 281.858 5.02917C281.343 5.50948 280.928 6.08675 280.637 6.7278C280.346 7.36886 280.185 8.06108 280.162 8.7647C280.154 8.90489 280.112 9.041 280.04 9.16119C279.967 9.28138 279.866 9.38201 279.746 9.45434L279.171 8.43425C279.188 7.47332 279.445 6.53188 279.919 5.69605C280.393 4.86022 281.07 4.15671 281.887 3.64989Z" fill="#CCCCCC"/>
<path d="M107.423 27.7585C105.377 27.7702 103.357 27.3044 101.523 26.398C99.6887 25.4916 98.0916 24.1697 96.8583 22.5374C95.6251 20.9052 94.7898 19.0076 94.4189 16.9958C94.048 14.9839 94.1518 12.9133 94.7219 10.9486C95.1386 9.51181 95.7851 8.16127 96.3167 6.78199C96.4604 6.40844 96.8196 5.94868 96.7046 5.6757C95.7133 3.23324 98.1414 3.19013 99.1184 2.09821C99.3195 1.86833 99.6356 1.75339 99.8655 2.09821C100.799 3.27634 101.834 2.64417 102.739 2.25625C105.868 1.01694 109.36 1.0686 112.451 2.39993C113.27 2.73038 114.06 3.08956 114.779 2.24188C115.023 1.95454 115.382 1.79649 115.67 2.14131C116.56 3.26197 119.132 3.2476 118.083 5.73317C117.954 6.02052 118.399 6.55211 118.572 6.96877C120.124 10.4744 121.33 14.0088 120.253 17.9311C119.496 20.754 117.828 23.2479 115.508 25.0251C113.188 26.8022 110.345 27.7631 107.423 27.7585Z" fill="#FDFDFD"/>
<path d="M18.8188 1.8827L21.5486 3.31944C26.2755 6.71016 28.4593 11.279 27.2956 17.0116C26.8853 19.5409 25.7163 21.8858 23.9434 23.7358C22.1704 25.5857 19.8772 26.8533 17.3677 27.3705C16.6062 27.5717 16.0746 27.859 16.1321 28.7211C16.2183 30.1578 15.1407 29.7268 14.4798 29.6693C13.8189 29.6118 12.5689 30.359 12.5689 28.8073C12.5689 27.7441 11.908 27.5429 11.0604 27.3705C8.38368 26.6958 5.98429 25.2025 4.19675 23.099C2.40922 20.9956 1.32265 18.3867 1.08857 15.6362C0.854487 12.8857 1.48455 10.1308 2.89092 7.75548C4.29728 5.38017 6.40982 3.50295 8.93398 2.38556C11.7019 1.0396 14.8823 0.813166 17.8131 1.75339C18.1439 1.8256 18.4804 1.86887 18.8188 1.8827Z" fill="#FDFDFD"/>
<path d="M260.192 18.7501C259.753 21.5149 258.253 23.9994 256.011 25.6752C255.292 25.5746 255.565 24.9999 255.551 24.612C255.576 24.3565 255.546 24.0986 255.462 23.856C255.378 23.6133 255.243 23.3916 255.066 23.206C254.889 23.0205 254.673 22.8754 254.434 22.7808C254.196 22.6862 253.94 22.6443 253.683 22.658C253.469 22.6227 253.249 22.6364 253.041 22.6982C252.832 22.7601 252.641 22.8684 252.48 23.015C252.32 23.1616 252.195 23.3427 252.114 23.5447C252.034 23.7466 252.001 23.9642 252.017 24.181C251.957 24.433 251.958 24.6953 252.019 24.9469C252.08 25.1985 252.199 25.4323 252.367 25.6294C252.535 25.8265 252.746 25.9815 252.985 26.0818C253.224 26.1821 253.482 26.2249 253.741 26.2068C253.965 26.1898 254.191 26.2194 254.403 26.2935C254.616 26.3677 254.811 26.4849 254.976 26.6378C248.022 32.3848 236.557 28.405 234.359 19.3535C233.687 16.9292 233.737 14.3617 234.503 11.9654C235.268 9.56913 236.716 7.4482 238.669 5.86248C238.994 5.54597 239.378 5.29771 239.8 5.13237C240.222 4.96704 240.673 4.88797 241.126 4.89986C245.187 4.95733 249.253 4.95733 253.324 4.89986C253.778 4.87891 254.231 4.94812 254.657 5.10348C255.084 5.25885 255.476 5.49729 255.81 5.80501C258.059 7.70515 259.615 10.2971 260.235 13.1755C260.378 13.6065 260.522 14.0232 260.019 14.3249C259.416 14.3249 259.2 13.7646 258.855 13.4054C258.445 12.9061 257.933 12.5003 257.352 12.215C256.772 11.9297 256.138 11.7716 255.492 11.7512C254.846 11.7308 254.203 11.8486 253.606 12.0967C253.009 12.3448 252.472 12.7175 252.031 13.1899C251.578 13.6297 251.22 14.1585 250.981 14.7429C250.742 15.3274 250.626 15.955 250.641 16.5864C250.656 17.2177 250.801 17.8392 251.067 18.4118C251.334 18.9844 251.716 19.4958 252.189 19.9138C252.673 20.3404 253.241 20.6616 253.856 20.857C254.472 21.0524 255.121 21.1177 255.762 21.0488C256.404 20.9799 257.025 20.7782 257.584 20.4567C258.144 20.1352 258.631 19.7008 259.014 19.1811C259.223 18.84 259.496 18.5425 259.818 18.3047C260.077 18.3334 260.292 18.4052 260.192 18.7501Z" fill="#FBFBFB"/>
<path d="M254.976 26.6665C252.764 26.9251 251.744 26.451 251.471 25.0143C251.35 24.5713 251.366 24.1021 251.517 23.6686C251.669 23.2351 251.948 22.8577 252.318 22.5862C252.678 22.3019 253.117 22.1356 253.574 22.1099C254.032 22.0841 254.486 22.2003 254.876 22.4425C255.275 22.6633 255.602 22.9954 255.816 23.3984C256.03 23.8014 256.123 24.2579 256.083 24.7126C256.083 25.0574 255.422 25.3447 256.011 25.7039L254.976 26.6665Z" fill="#171717"/>
<path d="M259.832 14.2387C260.422 14.0519 259.962 13.5203 260.192 13.2042C260.709 15.0264 260.709 16.9567 260.192 18.7788L259.904 18.4771C259.557 17.0883 259.533 15.6385 259.832 14.2387Z" fill="#828282"/>
<path d="M60.8866 4.95733C63.5159 4.95733 66.1595 5.02917 68.8031 4.95733C69.2814 4.91783 69.7615 5.00929 70.1917 5.2219C70.622 5.43452 70.9863 5.76026 71.2455 6.16419C72.8667 8.08174 73.8867 10.4346 74.178 12.9286C74.4693 15.4227 74.019 17.9473 72.8834 20.1868C71.8524 22.5158 70.1479 24.4829 67.9894 25.8348C65.8309 27.1868 63.3171 27.8617 60.7717 27.7728C55.0247 27.8734 51.2317 24.8993 48.9042 20.1006C47.774 17.8486 47.336 15.3123 47.6454 12.8116C47.9548 10.311 48.9977 7.95796 50.6426 6.04925C50.896 5.67598 51.2432 5.37593 51.6492 5.17922C52.0552 4.98252 52.5058 4.89608 52.9558 4.92859C55.5994 5.0148 58.243 4.95733 60.8866 4.95733Z" fill="#FBFBFB"/>
<path d="M153.815 18.3765C154.301 18.3474 154.789 18.4148 155.249 18.5748C155.709 18.7348 156.133 18.9842 156.496 19.3087C156.859 19.6333 157.155 20.0264 157.365 20.4656C157.576 20.9048 157.697 21.3814 157.723 21.8678C157.723 22.8538 157.337 23.8006 156.646 24.5045C155.956 25.2084 155.017 25.6133 154.031 25.6321C153.075 25.6169 152.165 25.2249 151.497 24.5413C150.83 23.8577 150.46 22.9381 150.468 21.9827C150.446 21.5251 150.517 21.0679 150.674 20.6378C150.832 20.2076 151.073 19.8131 151.385 19.4774C151.697 19.1417 152.072 18.8714 152.489 18.6824C152.907 18.4934 153.357 18.3894 153.815 18.3765Z" fill="#1E1E1E"/>
<path d="M159.577 12.5864C159.104 12.5883 158.636 12.4967 158.2 12.3169C157.763 12.1371 157.366 11.8726 157.032 11.5386C156.699 11.2047 156.434 10.808 156.254 10.3714C156.074 9.93473 155.983 9.4668 155.985 8.99458C155.98 8.04242 156.347 7.12598 157.007 6.43941C157.666 5.75285 158.567 5.35011 159.519 5.31651C160.503 5.32771 161.443 5.72336 162.138 6.4188C162.833 7.11424 163.229 8.05424 163.24 9.03768C163.207 9.9881 162.807 10.8886 162.123 11.5503C161.44 12.212 160.528 12.5833 159.577 12.5864Z" fill="#1E1E1E"/>
<path d="M148.528 12.5864C148.06 12.5846 147.597 12.4899 147.166 12.3079C146.736 12.1258 146.345 11.86 146.018 11.5259C145.69 11.1918 145.432 10.796 145.259 10.3615C145.086 9.92694 145 9.46233 145.008 8.99458C144.992 8.04161 145.353 7.12096 146.012 6.43239C146.671 5.74382 147.575 5.34286 148.528 5.31651C149.499 5.34948 150.42 5.75385 151.102 6.44623C151.784 7.13861 152.174 8.0662 152.192 9.03768C152.155 9.98691 151.753 10.8854 151.071 11.5463C150.389 12.2072 149.478 12.5798 148.528 12.5864Z" fill="#1F1F1F"/>
<path d="M161.574 19.3966C161.261 19.4008 160.95 19.3411 160.661 19.2211C160.372 19.101 160.111 18.9233 159.893 18.6986C159.675 18.474 159.505 18.2072 159.394 17.9146C159.283 17.6221 159.232 17.3099 159.246 16.9972C159.288 16.4085 159.562 15.8606 160.008 15.4739C160.454 15.0873 161.035 14.8936 161.624 14.9355C162.213 14.9774 162.761 15.2515 163.147 15.6974C163.534 16.1433 163.728 16.7246 163.686 17.3133C163.667 17.865 163.438 18.3886 163.045 18.7762C162.652 19.1638 162.125 19.3859 161.574 19.3966Z" fill="#111111"/>
<path d="M148.873 17.1553C148.879 17.4457 148.826 17.7343 148.719 18.0042C148.612 18.2742 148.452 18.5201 148.249 18.7274C148.045 18.9348 147.803 19.0995 147.535 19.212C147.267 19.3244 146.979 19.3823 146.689 19.3822C146.387 19.3861 146.088 19.3297 145.808 19.2164C145.528 19.1032 145.274 18.9353 145.06 18.7226C144.846 18.5099 144.676 18.2566 144.561 17.9776C144.446 17.6987 144.388 17.3996 144.39 17.0978C144.397 16.7977 144.465 16.5022 144.589 16.229C144.713 15.9557 144.892 15.7104 145.113 15.5078C145.334 15.3051 145.595 15.1493 145.878 15.0498C146.161 14.9502 146.461 14.9089 146.761 14.9283C147.047 14.9299 147.331 14.9895 147.594 15.1035C147.857 15.2174 148.094 15.3834 148.292 15.5914C148.489 15.7995 148.642 16.0452 148.742 16.314C148.842 16.5827 148.886 16.8689 148.873 17.1553Z" fill="#121212"/>
<path d="M152.192 33.1175C152.171 33.8357 151.883 34.5202 151.383 35.0361C150.883 35.552 150.208 35.862 149.491 35.9048C149.119 35.9161 148.749 35.8541 148.401 35.7223C148.053 35.5905 147.735 35.3916 147.464 35.1367C147.193 34.8819 146.975 34.5762 146.822 34.2372C146.67 33.8981 146.585 33.5323 146.574 33.1606C146.563 32.7889 146.625 32.4186 146.756 32.0709C146.888 31.7232 147.087 31.4048 147.342 31.134C147.597 30.8631 147.903 30.6452 148.242 30.4925C148.581 30.3398 148.946 30.2553 149.318 30.244C149.699 30.232 150.078 30.2982 150.432 30.4384C150.786 30.5785 151.107 30.7898 151.377 31.059C151.646 31.3283 151.857 31.6498 151.997 32.0039C152.137 32.3579 152.204 32.7369 152.192 33.1175Z" fill="#0E0E0E"/>
<path d="M158.844 35.8329C158.297 35.8468 157.758 35.6985 157.295 35.4068C156.832 35.115 156.466 34.6929 156.243 34.1936C156.019 33.6942 155.949 33.1399 156.039 32.6004C156.13 32.0609 156.379 31.5603 156.753 31.1617C157.128 30.7631 157.612 30.4842 158.145 30.3602C158.678 30.2362 159.236 30.2725 159.748 30.4647C160.26 30.6569 160.704 30.9963 161.024 31.4402C161.344 31.8842 161.525 32.4127 161.545 32.9595C161.546 33.6926 161.267 34.3985 160.765 34.9327C160.263 35.4669 159.576 35.789 158.844 35.8329Z" fill="#111111"/>
<path d="M204.978 18.7501C205.411 18.7519 205.839 18.84 206.238 19.0092C206.637 19.1784 206.998 19.4254 207.3 19.7357C207.602 20.046 207.84 20.4134 207.999 20.8165C208.157 21.2196 208.234 21.6502 208.225 22.0833C208.206 22.9472 207.849 23.7694 207.232 24.3736C206.614 24.9779 205.784 25.3162 204.92 25.316C204.028 25.3161 203.172 24.9647 202.538 24.3382C201.903 23.7116 201.541 22.8602 201.529 21.9684C201.563 21.0855 201.945 20.2517 202.59 19.6488C203.236 19.0459 204.094 18.7229 204.978 18.7501Z" fill="#1D1D1D"/>
<path d="M189.001 14.7847C188.999 14.3396 189.087 13.8988 189.259 13.4885C189.431 13.0782 189.685 12.707 190.004 12.397C190.323 12.0871 190.702 11.8448 191.117 11.6848C191.532 11.5248 191.976 11.4503 192.42 11.4658C192.856 11.4771 193.286 11.5742 193.684 11.7514C194.082 11.9286 194.442 12.1826 194.742 12.4988C195.042 12.815 195.277 13.1872 195.434 13.5942C195.59 14.0012 195.664 14.435 195.653 14.8709C195.642 15.3067 195.545 15.736 195.368 16.1344C195.19 16.5327 194.936 16.8922 194.62 17.1924C194.304 17.4926 193.932 17.7276 193.525 17.8839C193.118 18.0402 192.684 18.1149 192.248 18.1035C191.817 18.0998 191.39 18.0109 190.993 17.8419C190.596 17.6729 190.237 17.4271 189.935 17.1187C189.633 16.8103 189.395 16.4454 189.235 16.0448C189.075 15.6443 188.995 15.216 189.001 14.7847Z" fill="#1E1E1E"/>
<path d="M205.911 14.8278C205.898 14.3862 205.974 13.9465 206.135 13.5352C206.297 13.124 206.54 12.7498 206.85 12.4354C207.161 12.121 207.532 11.873 207.941 11.7063C208.35 11.5396 208.789 11.4578 209.23 11.4658C210.111 11.4543 210.959 11.793 211.59 12.4074C212.22 13.0217 212.581 13.8613 212.592 14.7416C212.604 15.6218 212.265 16.4705 211.651 17.101C211.036 17.7315 210.197 18.0921 209.317 18.1035C208.875 18.123 208.434 18.0526 208.021 17.8965C207.608 17.7404 207.23 17.502 206.912 17.1957C206.593 16.8893 206.34 16.5214 206.169 16.1144C205.997 15.7074 205.909 15.2696 205.911 14.8278Z" fill="#1E1E1E"/>
<path d="M204.087 14.8565C204.084 15.3017 203.99 15.7416 203.811 16.1494C203.632 16.5571 203.372 16.9242 203.047 17.2281C202.722 17.5319 202.338 17.7663 201.919 17.9168C201.5 18.0674 201.054 18.1309 200.61 18.1035C200.174 18.0828 199.747 17.9764 199.352 17.7904C198.957 17.6045 198.603 17.3426 198.309 17.0197C198.016 16.6968 197.789 16.3193 197.641 15.9087C197.494 15.4981 197.428 15.0625 197.449 14.6266C197.47 14.1908 197.576 13.7633 197.762 13.3686C197.948 12.9738 198.21 12.6196 198.533 12.3261C198.856 12.0326 199.233 11.8055 199.644 11.6579C200.055 11.5103 200.49 11.445 200.926 11.4658C201.794 11.4995 202.613 11.8748 203.205 12.51C203.797 13.1451 204.114 13.9886 204.087 14.8565Z" fill="#1C1C1C"/>
<path d="M193.943 20.1006C194.368 19.5006 194.981 19.0601 195.685 18.8492C196.389 18.6383 197.144 18.6692 197.828 18.9371C198.513 19.2049 199.088 19.6942 199.462 20.3269C199.836 20.9596 199.987 21.6994 199.892 22.4281C199.806 23.1508 199.482 23.8242 198.97 24.3422C198.459 24.8602 197.79 25.1932 197.069 25.2888C196.347 25.3843 195.615 25.2369 194.986 24.8698C194.358 24.5027 193.87 23.9368 193.599 23.2614C193.383 22.9166 193.397 22.6293 193.814 22.4569C194.418 22.6149 194.647 23.204 195.078 23.5632C195.508 23.9459 196.062 24.1574 196.637 24.1574C197.212 24.1574 197.767 23.9459 198.196 23.5632C198.595 23.2226 198.847 22.7416 198.901 22.2199C198.954 21.6982 198.805 21.1759 198.484 20.7615C198.351 20.5164 198.172 20.3 197.955 20.1251C197.738 19.9501 197.489 19.8201 197.221 19.7425C196.954 19.6649 196.674 19.6414 196.397 19.6733C196.12 19.7052 195.853 19.7918 195.61 19.9282C195.158 20.1993 194.676 20.4163 194.173 20.5747C194.001 20.5316 193.857 20.4454 193.943 20.1006Z" fill="#191919"/>
<path d="M204.776 6.22166C205.045 6.20924 205.313 6.25325 205.564 6.35085C205.815 6.44845 206.042 6.59749 206.232 6.78835C206.421 6.97921 206.569 7.20766 206.664 7.45897C206.76 7.71029 206.802 7.97889 206.788 8.24747C206.812 8.53075 206.776 8.81588 206.684 9.08482C206.592 9.35376 206.445 9.60066 206.253 9.8099C206.06 10.0191 205.827 10.1862 205.566 10.3004C205.306 10.4147 205.025 10.4737 204.741 10.4737C204.456 10.4737 204.175 10.4147 203.915 10.3004C203.654 10.1862 203.421 10.0191 203.228 9.8099C203.036 9.60066 202.889 9.35376 202.797 9.08482C202.705 8.81588 202.669 8.53075 202.693 8.24747C202.68 7.97305 202.726 7.699 202.827 7.44347C202.927 7.18793 203.081 6.95675 203.278 6.76522C203.475 6.5737 203.711 6.4262 203.969 6.33249C204.227 6.23878 204.503 6.20101 204.776 6.22166Z" fill="#0D0D0D"/>
<path d="M198.857 8.21874C198.699 9.65548 197.952 10.3739 196.716 10.3451C196.439 10.3661 196.161 10.3255 195.902 10.2263C195.642 10.127 195.408 9.97156 195.216 9.77103C195.023 9.57051 194.878 9.3299 194.789 9.06649C194.701 8.80307 194.672 8.52337 194.705 8.24747C194.686 7.9716 194.728 7.69499 194.829 7.43729C194.929 7.1796 195.085 6.94716 195.285 6.7565C195.485 6.56584 195.725 6.42165 195.987 6.33418C196.25 6.2467 196.528 6.2181 196.803 6.2504C197.068 6.23875 197.333 6.28105 197.582 6.37474C197.831 6.46843 198.058 6.61157 198.25 6.79552C198.442 6.97947 198.595 7.20042 198.699 7.44503C198.804 7.68964 198.857 7.95283 198.857 8.21874Z" fill="#141414"/>
<path d="M193.857 22.5431L193.541 23.2614C193.238 22.7714 193.108 22.1944 193.17 21.6218C193.233 21.0492 193.485 20.5138 193.886 20.1006L194.216 20.4742C194.386 20.8121 194.442 21.1954 194.377 21.5677C194.313 21.9401 194.13 22.282 193.857 22.5431Z" fill="#383838"/>
<path d="M198.699 33.1175C198.688 33.4836 198.605 33.8439 198.454 34.1778C198.304 34.5117 198.089 34.8127 197.822 35.0636C197.555 35.3144 197.242 35.5102 196.899 35.6398C196.556 35.7693 196.192 35.8301 195.826 35.8186C195.457 35.8152 195.093 35.7373 194.756 35.5895C194.418 35.4417 194.114 35.2271 193.861 34.9586C193.609 34.6901 193.414 34.3732 193.287 34.0272C193.16 33.6812 193.105 33.3131 193.124 32.9451C193.135 32.5833 193.219 32.2274 193.371 31.8988C193.522 31.5701 193.739 31.2755 194.007 31.0327C194.276 30.7898 194.59 30.6036 194.932 30.4854C195.274 30.3672 195.637 30.3193 195.998 30.3446C196.721 30.3633 197.408 30.6637 197.912 31.1817C198.417 31.6997 198.699 32.3944 198.699 33.1175Z" fill="#0D0D0D"/>
<path d="M208.11 33.1175C208.11 33.8491 207.819 34.5508 207.302 35.0681C206.784 35.5854 206.083 35.876 205.351 35.876C204.62 35.876 203.918 35.5854 203.401 35.0681C202.883 34.5508 202.593 33.8491 202.593 33.1175C202.593 32.3859 202.883 31.6842 203.401 31.1669C203.918 30.6496 204.62 30.359 205.351 30.359C206.083 30.359 206.784 30.6496 207.302 31.1669C207.819 31.6842 208.11 32.3859 208.11 33.1175Z" fill="#0F0F0F"/>
<path d="M303.596 15.0433C306.167 14.0663 306.167 14.0663 305.708 16.9254C305.512 18.5673 304.849 20.1183 303.797 21.3937C298.797 15.7329 289.429 14.2818 282.648 21.3937C281.183 19.2314 280.532 16.6201 280.809 14.0232C281.821 14.6655 282.976 15.0487 284.171 15.1389C285.366 15.2291 286.565 15.0236 287.662 14.5404C288.007 14.368 288.122 14.5404 288.165 14.8565C287.461 16.0346 286.269 15.9628 285.148 16.0346C284.093 16.0854 283.036 16.0033 282.001 15.7904C281.924 15.9696 281.885 16.1627 281.885 16.3579C281.885 16.553 281.924 16.7461 282.001 16.9254C282.49 19.6983 282.705 19.7989 285.004 18.2041C287.531 16.3923 290.578 15.4492 293.687 15.5166C296.796 15.5839 299.799 16.658 302.245 18.5777C302.719 18.9225 303.222 20.0144 304.027 18.9512C304.433 18.4772 304.657 17.8732 304.657 17.2487C304.657 16.6241 304.433 16.0202 304.027 15.5461C303.768 15.4743 303.581 15.345 303.596 15.0433Z" fill="#1C1C1C"/>
<path d="M295.995 8.69286C295.993 7.61388 296.311 6.55856 296.911 5.66151C297.511 4.76446 298.364 4.06634 299.362 3.65619C300.36 3.24605 301.457 3.14248 302.514 3.35868C303.572 3.57489 304.54 4.10108 305.297 4.87013C306.054 5.63918 306.564 6.61624 306.764 7.67667C306.963 8.7371 306.842 9.83284 306.416 10.8241C305.99 11.8154 305.278 12.6573 304.371 13.2424C303.465 13.8275 302.404 14.1294 301.326 14.1094C299.903 14.0905 298.545 13.511 297.547 12.4968C296.549 11.4827 295.991 10.1157 295.995 8.69286Z" fill="#0C0C0C"/>
<path d="M279.746 9.45434C279.665 8.39986 279.855 7.34218 280.297 6.38164C280.74 5.42111 281.42 4.58958 282.274 3.96598C286.269 2.34246 289.975 3.96598 290.521 7.75898C290.757 9.13099 290.453 10.5408 289.674 11.6945C288.895 12.8482 287.701 13.6567 286.34 13.9513C283.194 14.5979 280.708 12.9025 279.746 9.45434Z" fill="#070707"/>
<path d="M303.596 15.0433L304.07 15.3737C303.84 16.0777 303.208 16.0346 302.633 16.0921C301.279 16.2503 299.907 16.0412 298.661 15.4867C297.415 14.9322 296.341 14.0527 295.552 12.9405C294.763 11.8283 294.288 10.5243 294.176 9.16517C294.065 7.80609 294.321 6.442 294.918 5.21594C295.55 3.90851 295.291 3.33381 294.185 2.77348C294.314 2.08384 294.975 2.57234 295.277 2.27062C295.392 2.26343 295.507 2.26343 295.622 2.27062C297.676 2.74474 297.676 2.74474 296.455 4.42573C295.674 5.52489 295.23 6.82826 295.179 8.17585C295.128 9.52345 295.472 10.8566 296.168 12.0117C296.93 13.2334 298.058 14.1838 299.392 14.728C300.725 15.2722 302.196 15.3825 303.596 15.0433Z" fill="#202020"/>
<path d="M295.636 19.7989C296.642 21.3937 296.613 22.6724 295.478 23.8074C295.012 24.3258 294.372 24.6569 293.68 24.7388C292.987 24.8208 292.288 24.648 291.714 24.2528C291.093 23.9342 290.614 23.3944 290.372 22.74C290.13 22.0856 290.142 21.3643 290.406 20.7184C290.967 19.1093 292.159 18.5202 294.257 18.7932C294.329 19.2386 293.984 19.3391 293.682 19.4828C293.183 19.6007 292.701 19.7792 292.245 20.0144C291.847 20.2445 291.547 20.6137 291.404 21.0512C291.261 21.4887 291.284 21.9637 291.47 22.385C291.584 22.8042 291.846 23.1677 292.208 23.4081C292.57 23.6485 293.007 23.7495 293.438 23.6925C293.896 23.6424 294.322 23.4318 294.641 23.0979C294.959 22.7639 295.149 22.3282 295.176 21.8678C295.263 21.3075 295.047 20.7471 295.105 20.1724C295.191 19.9282 295.32 19.7271 295.636 19.7989Z" fill="#1E1E1E"/>
<path d="M295.306 2.27062C295.004 2.6298 294.559 2.51487 294.185 2.60107C293.558 2.99884 292.83 3.20827 292.087 3.2045C291.153 3.37691 290.938 3.75046 291.441 4.64125C292.132 5.87354 292.437 7.28503 292.317 8.69286C292.317 9.23882 292.317 9.84226 291.757 10.2158C291.24 10.0578 291.369 9.66985 291.455 9.31066C291.549 8.30912 291.428 7.29909 291.101 6.3478C290.774 5.39651 290.248 4.52578 289.559 3.79357C288.697 2.93152 289.185 2.74474 290.033 2.51487C291.755 2.075 293.55 1.99189 295.306 2.27062Z" fill="#181818"/>
<path d="M293.797 26.4797C292.878 26.3935 292.016 26.3217 291.168 26.1924C290.866 26.1924 290.406 26.0775 290.55 25.589C290.694 25.1005 290.995 25.2729 291.268 25.3447C292.951 25.7329 294.7 25.7329 296.383 25.3447C296.642 25.3447 296.987 25.3447 297.03 25.6895C297.073 26.0344 296.728 26.178 296.469 26.2068C295.564 26.3073 294.659 26.3935 293.797 26.4797Z" fill="#1B1B1B"/>
<path d="M291.455 9.31066L291.8 10.1296C291.862 11.2441 291.517 12.3432 290.83 13.223C290.143 14.1027 289.161 14.7036 288.065 14.914L287.662 14.5835C288.631 14.0221 289.47 13.262 290.123 12.3532C290.777 11.4444 291.231 10.4075 291.455 9.31066Z" fill="#313131"/>
<path d="M299.774 23.0603C299.719 23.0183 299.675 22.9642 299.645 22.9023C298.898 22.2126 299.444 21.7385 299.932 21.2787C300.421 20.819 300.852 21.0489 301.239 21.4511C301.627 21.8534 301.915 22.4281 301.484 22.8879C301.401 23.035 301.285 23.1601 301.144 23.2526C301.003 23.3451 300.841 23.4022 300.674 23.4192C300.506 23.4361 300.337 23.4123 300.18 23.3498C300.023 23.2873 299.884 23.188 299.774 23.0603Z" fill="#F4F4F4"/>
<path d="M286.656 21.1494C287.849 21.4224 287.619 22.2988 287.289 22.9885C287.206 23.1604 287.086 23.3119 286.938 23.4321C286.789 23.5522 286.616 23.638 286.431 23.6833C286.245 23.7287 286.052 23.7324 285.865 23.6942C285.678 23.656 285.502 23.5769 285.349 23.4626C285.174 23.3872 285.019 23.2734 284.894 23.1296C284.77 22.9857 284.679 22.8156 284.629 22.632C284.58 22.4483 284.572 22.2557 284.607 22.0687C284.642 21.8816 284.719 21.7049 284.832 21.5517C285.292 20.8621 285.881 20.4167 286.685 21.1782L286.455 21.408C286.197 21.6667 285.723 21.7816 285.838 22.2845C285.844 22.3246 285.861 22.3625 285.885 22.3953C285.909 22.428 285.941 22.4545 285.977 22.4727C286.013 22.4909 286.053 22.5003 286.094 22.5C286.135 22.4997 286.175 22.4899 286.211 22.4712C286.671 22.2701 286.47 21.8103 286.556 21.4511C286.57 21.345 286.604 21.2426 286.656 21.1494Z" fill="#585858"/>
<path d="M299.774 23.0603C300.334 23.2614 300.88 23.3764 301.311 22.7873C301.422 22.6542 301.488 22.49 301.501 22.3175C301.514 22.145 301.473 21.9728 301.383 21.8247C301.139 21.4368 300.808 21.0345 300.277 21.25C300.108 21.2917 299.952 21.3736 299.822 21.4887C299.692 21.6038 299.591 21.7487 299.529 21.911C299.467 22.0733 299.445 22.2482 299.465 22.4208C299.485 22.5934 299.547 22.7586 299.645 22.9023C298.625 22.4281 299.012 21.7672 299.515 21.2356C299.632 21.0889 299.781 20.9705 299.95 20.889C300.119 20.8076 300.305 20.7654 300.492 20.7654C300.68 20.7654 300.865 20.8076 301.034 20.889C301.204 20.9705 301.352 21.0889 301.469 21.2356C301.63 21.3576 301.76 21.5151 301.85 21.6958C301.94 21.8765 301.987 22.0755 301.987 22.2773C301.987 22.479 301.94 22.6781 301.85 22.8588C301.76 23.0395 301.63 23.197 301.469 23.3189C300.909 23.7499 300.176 24.0804 299.774 23.0603Z" fill="#5A5A5A"/>
<path d="M295.636 19.7989L295.306 20.1437C294.937 20.2191 294.554 20.1607 294.225 19.979C293.896 19.7973 293.642 19.5042 293.51 19.1524C293.768 19.0374 294.113 19.1524 294.257 18.7932C294.548 18.8445 294.824 18.9618 295.063 19.1361C295.302 19.3105 295.498 19.5372 295.636 19.7989Z" fill="#434343"/>
<path d="M117.71 14.5835C117.71 14.9695 117.633 15.3515 117.482 15.7069C117.331 16.0622 117.111 16.3836 116.833 16.6518C116.555 16.92 116.227 17.1295 115.866 17.2678C115.506 17.4062 115.121 17.4705 114.736 17.457C113.974 17.457 113.243 17.1543 112.704 16.6154C112.165 16.0765 111.862 15.3456 111.862 14.5835C111.855 14.1888 111.926 13.7966 112.072 13.4299C112.218 13.0632 112.436 12.7294 112.714 12.4483C112.991 12.1672 113.321 11.9443 113.686 11.7928C114.05 11.6414 114.442 11.5644 114.836 11.5663C115.609 11.6101 116.336 11.9464 116.87 12.5067C117.403 13.0671 117.704 13.8097 117.71 14.5835Z" fill="#0B0B0B"/>
<path d="M100.253 11.5663C101.03 11.6069 101.761 11.9441 102.296 12.5083C102.83 13.0724 103.128 13.8205 103.127 14.5979C103.118 14.9897 103.03 15.3758 102.87 15.7334C102.71 16.0911 102.48 16.4132 102.193 16.6808C101.907 16.9484 101.57 17.1562 101.203 17.2919C100.835 17.4277 100.444 17.4887 100.052 17.4714C99.3052 17.4489 98.5963 17.1363 98.0759 16.5999C97.5555 16.0634 97.2646 15.3453 97.265 14.5979C97.2426 14.1976 97.3042 13.797 97.4459 13.4219C97.5876 13.0469 97.8062 12.7056 98.0876 12.4201C98.3691 12.1346 98.7072 11.9111 99.0802 11.7641C99.4532 11.617 99.8528 11.5497 100.253 11.5663Z" fill="#090909"/>
<path d="M107.408 10.9773C106.893 10.9717 106.385 10.864 105.911 10.6604C105.438 10.4568 105.01 10.1614 104.652 9.79128C104.294 9.42112 104.013 8.9836 103.825 8.50404C103.637 8.02448 103.546 7.51242 103.558 6.99751C103.554 6.48202 103.653 5.97094 103.849 5.49412C104.045 5.01731 104.334 4.58433 104.699 4.22049C105.064 3.85664 105.498 3.56923 105.976 3.37505C106.453 3.18087 106.965 3.08382 107.48 3.08956C108.011 3.09143 108.536 3.19829 109.025 3.404C109.515 3.6097 109.958 3.91018 110.331 4.28813C110.703 4.66608 110.998 5.11401 111.196 5.60614C111.395 6.09826 111.494 6.62485 111.489 7.15555C111.43 8.19475 110.973 9.17138 110.213 9.88292C109.454 10.5945 108.449 10.9863 107.408 10.9773Z" fill="#1B1B1B"/>
<path d="M107.495 18.0317C108.529 18.0489 109.518 18.4597 110.26 19.1804C111.002 19.9011 111.441 20.8775 111.489 21.9109C111.459 22.9983 111.002 24.0301 110.216 24.783C109.431 25.5359 108.381 25.9493 107.293 25.9338C106.268 25.864 105.309 25.4031 104.614 24.6465C103.919 23.8898 103.541 22.8952 103.558 21.8678C103.577 20.8389 104.001 19.8589 104.738 19.1407C105.475 18.4225 106.465 18.024 107.495 18.0317Z" fill="#191919"/>
<path d="M19.8245 12.5864C19.3524 12.5865 18.8849 12.4924 18.4496 12.3096C18.0143 12.1268 17.6199 11.8589 17.2894 11.5218C16.9589 11.1846 16.699 10.7848 16.525 10.346C16.3509 9.90708 16.2662 9.43788 16.2757 8.96584C16.2787 8.25079 16.4941 7.55275 16.8947 6.96043C17.2953 6.36811 17.8629 5.90825 18.5255 5.63928C19.188 5.37032 19.9156 5.30439 20.6157 5.44987C21.3158 5.59536 21.9568 5.9457 22.4573 6.45636C22.9579 6.96702 23.2953 7.61496 23.4267 8.31784C23.5581 9.02071 23.4777 9.7468 23.1955 10.4038C22.9133 11.0608 22.4421 11.6191 21.8419 12.0078C21.2417 12.3964 20.5395 12.5978 19.8245 12.5864Z" fill="#242424"/>
<path d="M8.87651 12.5721C8.40478 12.5835 7.93542 12.5019 7.49525 12.3319C7.05507 12.1619 6.6527 11.9069 6.31113 11.5813C5.96957 11.2557 5.69549 10.8661 5.50457 10.4346C5.31365 10.0031 5.20963 9.53815 5.19844 9.06642C5.19084 8.58031 5.27932 8.09749 5.45878 7.64566C5.63824 7.19383 5.90517 6.78189 6.24424 6.43348C6.5833 6.08507 6.98783 5.80705 7.43462 5.61537C7.8814 5.42369 8.36164 5.32213 8.84777 5.31651C9.80051 5.33163 10.7089 5.72172 11.3759 6.40218C12.0429 7.08265 12.4148 7.99862 12.4109 8.95148C12.4224 9.42282 12.3395 9.89171 12.167 10.3305C11.9945 10.7693 11.736 11.1692 11.4067 11.5066C11.0773 11.844 10.6838 12.112 10.2493 12.295C9.81474 12.478 9.34799 12.5722 8.87651 12.5721Z" fill="#232323"/>
<path d="M14.2643 18.3621C15.2183 18.3545 16.1364 18.7251 16.8177 19.3929C17.499 20.0608 17.8879 20.9713 17.8993 21.9253C17.9639 22.4351 17.9192 22.9528 17.7683 23.4441C17.6173 23.9353 17.3635 24.3888 17.0237 24.7743C16.684 25.1599 16.266 25.4687 15.7977 25.6802C15.3293 25.8917 14.8213 26.0011 14.3074 26.0011C13.7935 26.0011 13.2855 25.8917 12.8171 25.6802C12.3488 25.4687 11.9308 25.1599 11.5911 24.7743C11.2513 24.3888 10.9975 23.9353 10.8465 23.4441C10.6956 22.9528 10.6509 22.4351 10.7155 21.9253C10.7266 20.9862 11.1037 20.0885 11.7664 19.4231C12.4291 18.7577 13.3253 18.377 14.2643 18.3621Z" fill="#202020"/>
<path d="M9.14949 17.4426C9.09858 17.9849 8.84288 18.4874 8.43448 18.8477C8.02607 19.2081 7.49566 19.3992 6.95127 19.3822C6.65033 19.3885 6.35131 19.3328 6.07276 19.2187C5.79421 19.1047 5.54205 18.9346 5.33192 18.7191C5.12179 18.5035 4.95816 18.2472 4.85117 17.9658C4.74418 17.6845 4.69611 17.3841 4.70995 17.0834C4.69517 16.7941 4.74176 16.5048 4.84668 16.2347C4.95159 15.9646 5.11245 15.7198 5.31869 15.5163C5.52493 15.3127 5.77189 15.1551 6.04335 15.0538C6.31482 14.9525 6.60464 14.9097 6.8938 14.9283C7.21448 14.9215 7.53285 14.984 7.82713 15.1116C8.12141 15.2392 8.38466 15.4289 8.59885 15.6676C8.81305 15.9064 8.97314 16.1886 9.06817 16.495C9.16321 16.8013 9.19095 17.1246 9.14949 17.4426Z" fill="#1D1D1D"/>
<path d="M23.991 16.9685C24.0116 17.2871 23.9647 17.6065 23.8534 17.9058C23.7421 18.205 23.569 18.4775 23.3453 18.7053C23.1215 18.9331 22.8523 19.1111 22.5551 19.2277C22.2578 19.3444 21.9394 19.397 21.6204 19.3822C21.3317 19.3751 21.0473 19.3097 20.7845 19.1898C20.5217 19.0699 20.2859 18.8981 20.0912 18.6846C19.8966 18.4712 19.7472 18.2206 19.6519 17.9479C19.5567 17.6752 19.5177 17.386 19.5371 17.0978C19.536 16.7965 19.5977 16.4982 19.7182 16.2221C19.8387 15.9459 20.0154 15.6978 20.2371 15.4937C20.4588 15.2896 20.7205 15.134 21.0057 15.0366C21.2909 14.9393 21.5932 14.9024 21.8934 14.9283C22.4388 14.9317 22.9618 15.146 23.3528 15.5263C23.7438 15.9066 23.9725 16.4234 23.991 16.9685Z" fill="#141414"/>
<path d="M239.402 21.6236C238.728 21.6217 238.061 21.4866 237.439 21.226C236.817 20.9654 236.253 20.5845 235.779 20.1052C235.305 19.6258 234.931 19.0575 234.677 18.4329C234.423 17.8083 234.296 17.1397 234.302 16.4656C234.272 15.7664 234.385 15.0685 234.634 14.4143C234.883 13.7602 235.262 13.1636 235.749 12.6608C236.236 12.158 236.82 11.7595 237.466 11.4896C238.112 11.2197 238.805 11.084 239.505 11.0908C240.205 11.0977 240.896 11.2469 241.537 11.5293C242.177 11.8118 242.753 12.2216 243.23 12.7338C243.707 13.246 244.075 13.85 244.311 14.5088C244.547 15.1677 244.646 15.8677 244.603 16.5662C244.58 17.9254 244.02 19.2203 243.046 20.1679C242.071 21.1156 240.761 21.6389 239.402 21.6236Z" fill="#151515"/>
<path d="M259.832 14.2387C260.346 15.6253 260.372 17.1459 259.904 18.5489C259.431 19.6133 258.609 20.4842 257.573 21.0178C256.538 21.5513 255.352 21.7155 254.21 21.4831C253.069 21.2508 252.041 20.6358 251.297 19.7399C250.552 18.8441 250.136 17.721 250.117 16.5563C250.097 15.3917 250.476 14.2554 251.19 13.3352C251.904 12.415 252.911 11.7661 254.044 11.4959C255.177 11.2256 256.368 11.3502 257.421 11.8489C258.473 12.3476 259.324 13.1907 259.832 14.2387Z" fill="#080808"/>
<path d="M243.899 24.6982C243.903 24.2253 244 23.758 244.187 23.3233C244.373 22.8886 244.643 22.4953 244.983 22.1664C245.323 21.8374 245.725 21.5794 246.165 21.4072C246.605 21.2351 247.076 21.1523 247.548 21.1638C248.504 21.193 249.413 21.5877 250.086 22.2666C250.76 22.9456 251.147 23.857 251.169 24.8131C251.111 25.7675 250.693 26.6644 250 27.3229C249.307 27.9815 248.389 28.3527 247.433 28.3619C246.96 28.3563 246.492 28.2568 246.057 28.0691C245.623 27.8814 245.23 27.6093 244.901 27.2685C244.572 26.9277 244.314 26.525 244.142 26.0838C243.97 25.6425 243.888 25.1716 243.899 24.6982Z" fill="#0D0D0D"/>
<path d="M249.545 8.41988C249.531 8.87851 249.383 9.32289 249.118 9.69783C248.854 10.0728 248.485 10.3617 248.058 10.5289C247.63 10.696 247.163 10.7339 246.715 10.6379C246.266 10.5419 245.855 10.3162 245.534 9.98884C245.212 9.66147 244.994 9.24687 244.906 8.79653C244.818 8.34618 244.865 7.87994 245.039 7.45569C245.214 7.03145 245.51 6.6679 245.889 6.4102C246.269 6.1525 246.716 6.012 247.175 6.00615C247.809 6.01373 248.414 6.27184 248.858 6.72409C249.302 7.17634 249.549 7.78599 249.545 8.41988Z" fill="#282828"/>
<path d="M247.405 16.3507C246.769 16.3437 246.16 16.0919 245.705 15.6477C245.251 15.2035 244.984 14.6011 244.962 13.9657C244.97 13.3292 245.227 12.7211 245.678 12.2724C246.13 11.8236 246.739 11.5701 247.376 11.5663C247.989 11.5766 248.576 11.8199 249.016 12.2469C249.456 12.6739 249.717 13.2525 249.747 13.8651C249.758 14.5033 249.52 15.1207 249.082 15.5852C248.645 16.0498 248.042 16.3245 247.405 16.3507Z" fill="#262626"/>
<path d="M252.764 10.8192C252.131 10.7683 251.542 10.4786 251.115 10.009C250.688 9.53946 250.456 8.92511 250.465 8.29057C250.516 7.65804 250.809 7.06949 251.282 6.64688C251.756 6.22427 252.374 5.99999 253.008 6.02052C253.61 6.09195 254.166 6.37578 254.577 6.82092C254.988 7.26606 255.226 7.84326 255.249 8.44862C255.21 9.08412 254.932 9.68124 254.471 10.1207C254.01 10.5602 253.4 10.8096 252.764 10.8192Z" fill="#202020"/>
<path d="M243.928 8.47735C243.901 9.1137 243.623 9.71339 243.154 10.1445C242.685 10.5756 242.064 10.8028 241.428 10.7761C241.113 10.7629 240.803 10.6878 240.517 10.555C240.231 10.4222 239.974 10.2344 239.761 10.0023C239.33 9.53344 239.102 8.91256 239.129 8.27621C239.194 7.6718 239.473 7.11054 239.915 6.69411C240.358 6.27767 240.936 6.03361 241.543 6.00615C242.181 6.03548 242.783 6.30785 243.227 6.76738C243.67 7.22691 243.921 7.83875 243.928 8.47735Z" fill="#212121"/>
<path d="M243.655 24.497C243.668 25.1334 243.428 25.749 242.988 26.2084C242.547 26.6678 241.942 26.9334 241.306 26.9467C240.669 26.96 240.054 26.72 239.594 26.2795C239.135 25.839 238.869 25.234 238.856 24.5976C238.859 23.9656 239.106 23.3591 239.545 22.9042C239.983 22.4493 240.581 22.181 241.212 22.1551C241.845 22.1473 242.456 22.3884 242.913 22.8264C243.369 23.2645 243.636 23.8644 243.655 24.497Z" fill="#212121"/>
<path d="M253.669 26.293C252.634 26.1062 251.93 25.5315 251.945 24.4827C251.927 24.2348 251.966 23.9861 252.057 23.7549C252.148 23.5236 252.289 23.3157 252.471 23.1463C252.653 22.9769 252.87 22.8502 253.107 22.7757C253.344 22.7012 253.595 22.6806 253.841 22.7155C254.076 22.7134 254.308 22.7618 254.522 22.8572C254.736 22.9527 254.928 23.093 255.083 23.2687C255.238 23.4444 255.354 23.6514 255.422 23.8757C255.491 24.1 255.51 24.3364 255.479 24.5689C255.464 25.0364 255.266 25.4792 254.927 25.8018C254.588 26.1243 254.137 26.3008 253.669 26.293Z" fill="#F4F4F4"/>
<path d="M69.464 11.4801C69.8998 11.4801 70.3314 11.566 70.7341 11.7328C71.1367 11.8996 71.5026 12.144 71.8108 12.4522C72.119 12.7604 72.3634 13.1263 72.5302 13.5289C72.697 13.9316 72.7829 14.3632 72.7829 14.799C72.7829 15.2349 72.697 15.6664 72.5302 16.0691C72.3634 16.4718 72.119 16.8376 71.8108 17.1458C71.5026 17.454 71.1367 17.6985 70.7341 17.8653C70.3314 18.0321 69.8998 18.1179 69.464 18.1179C68.601 18.101 67.7763 17.7585 67.1554 17.1589C66.5345 16.5593 66.1633 15.7471 66.1164 14.8852C66.1125 13.9909 66.4621 13.1312 67.0891 12.4935C67.7161 11.8557 68.5697 11.4915 69.464 11.4801Z" fill="#252525"/>
<path d="M52.496 18.1035C52.0533 18.0924 51.617 17.9938 51.2124 17.8136C50.8079 17.6333 50.4429 17.3749 50.1385 17.0531C49.8341 16.7314 49.5963 16.3526 49.4387 15.9387C49.2811 15.5247 49.2069 15.0837 49.2203 14.641C49.2488 13.7455 49.632 12.8981 50.2854 12.2851C50.9388 11.6721 51.8089 11.3438 52.7044 11.3724C53.5998 11.401 54.4473 11.7841 55.0602 12.4375C55.6732 13.0909 56.0015 13.961 55.973 14.8565C55.9581 15.2981 55.8564 15.7324 55.6736 16.1346C55.4908 16.5369 55.2305 16.8991 54.9075 17.2007C54.5846 17.5023 54.2054 17.7372 53.7917 17.8921C53.3779 18.0471 52.9376 18.1189 52.496 18.1035Z" fill="#212121"/>
<path d="M61.0447 11.4658C61.4863 11.4559 61.9254 11.5358 62.3352 11.7007C62.745 11.8657 63.1171 12.1121 63.4288 12.4252C63.7405 12.7382 63.9853 13.1113 64.1485 13.5219C64.3116 13.9324 64.3897 14.3718 64.3779 14.8134C64.3751 15.472 64.1772 16.1151 63.8092 16.6613C63.4412 17.2076 62.9196 17.6326 62.3103 17.8826C61.701 18.1327 61.0312 18.1967 60.3856 18.0665C59.74 17.9362 59.1474 17.6176 58.6827 17.1509C58.2179 16.6842 57.9019 16.0902 57.7745 15.444C57.647 14.7978 57.7138 14.1284 57.9665 13.5201C58.2192 12.9119 58.6465 12.3922 59.1943 12.0265C59.7421 11.6609 60.386 11.4658 61.0447 11.4658Z" fill="#212121"/>
<path d="M68.5301 21.9396C68.5555 22.5972 68.3848 23.2475 68.0398 23.8079C67.6947 24.3683 67.1909 24.8135 66.5922 25.0868C65.9936 25.3601 65.3272 25.4494 64.6777 25.3431C64.0283 25.2368 63.4251 24.9399 62.9448 24.49C62.4645 24.0401 62.1288 23.4575 61.9804 22.8164C61.8319 22.1753 61.8774 21.5045 62.1111 20.8893C62.3448 20.2741 62.7561 19.7422 63.2927 19.3613C63.8294 18.9804 64.4672 18.7677 65.125 18.7501C65.5597 18.7288 65.9943 18.7952 66.4029 18.9452C66.8114 19.0953 67.1856 19.3259 67.5033 19.6235C67.8209 19.921 68.0755 20.2794 68.2519 20.6773C68.4283 21.0752 68.5229 21.5045 68.5301 21.9396Z" fill="#222222"/>
<path d="M56.9356 18.7501C57.3713 18.7481 57.803 18.8328 58.2058 18.9991C58.6085 19.1654 58.9742 19.41 59.2816 19.7187C59.589 20.0275 59.832 20.3943 59.9966 20.7977C60.1611 21.2011 60.2439 21.6333 60.2401 22.0689C60.1747 22.9133 59.7903 23.7011 59.165 24.2724C58.5397 24.8436 57.7205 25.1554 56.8736 25.1444C56.0268 25.1334 55.2159 24.8005 54.6056 24.2133C53.9953 23.626 53.6315 22.8285 53.588 21.9827C53.5916 21.5495 53.6816 21.1214 53.8525 20.7233C54.0235 20.3252 54.2721 19.9652 54.5837 19.6642C54.8954 19.3633 55.2639 19.1275 55.6677 18.9705C56.0715 18.8135 56.5025 18.7386 56.9356 18.7501Z" fill="#212121"/>
<path d="M64.8951 6.2073C66.2313 6.2935 67.0646 6.8682 67.1221 8.19C67.1334 8.45981 67.0915 8.7292 66.9987 8.9828C66.9059 9.2364 66.7641 9.46924 66.5813 9.66803C66.2121 10.0695 65.6986 10.3079 65.1537 10.3307C64.8839 10.3421 64.6145 10.3001 64.3609 10.2073C64.1073 10.1146 63.8745 9.97272 63.6757 9.78994C63.2742 9.42081 63.0359 8.90731 63.013 8.36241C62.9874 8.09578 63.0164 7.82672 63.0984 7.57171C63.1804 7.31671 63.3136 7.08111 63.4898 6.87936C63.666 6.67761 63.8815 6.51394 64.1231 6.39838C64.3648 6.28282 64.6275 6.2178 64.8951 6.2073Z" fill="#121212"/>
<path d="M54.9529 8.1469C54.9592 7.8741 55.0222 7.60559 55.1378 7.35843C55.2534 7.11126 55.4192 6.89084 55.6245 6.71115C55.8299 6.53146 56.0704 6.39644 56.3307 6.31464C56.591 6.23285 56.8655 6.20608 57.1367 6.23603C57.4132 6.2228 57.6892 6.2707 57.945 6.37634C58.2009 6.48197 58.4302 6.64274 58.6168 6.84717C58.8034 7.0516 58.9426 7.29467 59.0246 7.55907C59.1065 7.82346 59.129 8.10266 59.0907 8.37678C59.1014 8.65444 59.0513 8.93109 58.9441 9.18743C58.8369 9.44378 58.6751 9.67366 58.4699 9.86105C58.2647 10.0484 58.0212 10.1888 57.7562 10.2724C57.4912 10.356 57.2111 10.3808 56.9356 10.3451C56.6567 10.3445 56.3811 10.2855 56.1264 10.172C55.8717 10.0584 55.6436 9.89271 55.4568 9.68563C55.27 9.47855 55.1287 9.23464 55.0419 8.96963C54.9551 8.70461 54.9248 8.42435 54.9529 8.1469Z" fill="#111111"/>
<path d="M151.057 21.7241C151.069 21.3106 151.166 20.9041 151.342 20.5297C151.518 20.1553 151.769 19.8211 152.079 19.5478C152.39 19.2745 152.753 19.068 153.147 18.9411C153.54 18.8141 153.956 18.7695 154.368 18.81C154.779 18.8505 155.178 18.9752 155.54 19.1763C155.901 19.3775 156.217 19.6509 156.469 19.9794C156.72 20.3079 156.901 20.6846 157.001 21.0861C157.1 21.4876 157.116 21.9053 157.048 22.3132C156.921 23.067 156.513 23.7445 155.906 24.209C155.299 24.6734 154.538 24.8902 153.777 24.8154C153.017 24.7406 152.313 24.3798 151.808 23.806C151.303 23.2323 151.034 22.4882 151.057 21.7241Z" fill="#FBFBFB"/>
<path d="M159.577 11.9686C158.784 11.9686 158.024 11.6538 157.463 11.0933C156.903 10.5329 156.588 9.77279 156.588 8.98021C156.588 8.18763 156.903 7.42751 157.463 6.86707C158.024 6.30664 158.784 5.99178 159.577 5.99178C159.977 5.96356 160.378 6.01939 160.755 6.15568C161.132 6.29196 161.477 6.5057 161.767 6.78312C162.056 7.06054 162.284 7.39552 162.437 7.76649C162.589 8.13746 162.662 8.53622 162.651 8.93711C162.675 9.34508 162.611 9.75337 162.464 10.1347C162.317 10.5161 162.091 10.8618 161.8 11.1487C161.509 11.4356 161.16 11.6571 160.777 11.7985C160.393 11.9399 159.984 11.9979 159.577 11.9686Z" fill="#FCFCFC"/>
<path d="M151.545 8.92274C151.574 9.52169 151.423 10.1155 151.112 10.6284C150.802 11.1413 150.345 11.55 149.801 11.8024C149.257 12.0548 148.651 12.1393 148.058 12.0453C147.466 11.9513 146.915 11.683 146.476 11.2746C146.037 10.8662 145.73 10.3362 145.593 9.75238C145.457 9.16851 145.497 8.55721 145.71 7.99649C145.922 7.43577 146.297 6.95107 146.786 6.60424C147.275 6.25742 147.857 6.0642 148.456 6.04925C148.848 6.03194 149.24 6.09286 149.609 6.22845C149.977 6.36404 150.315 6.57159 150.602 6.83902C150.89 7.10645 151.121 7.42841 151.283 7.78615C151.445 8.14389 151.534 8.53025 151.545 8.92274Z" fill="#FCFCFC"/>
<path d="M161.487 18.5058C161.293 18.5289 161.096 18.5077 160.911 18.4436C160.727 18.3796 160.559 18.2745 160.42 18.1361C160.282 17.9978 160.177 17.8299 160.113 17.6451C160.049 17.4603 160.028 17.2633 160.051 17.0691C160.145 16.7816 160.328 16.5313 160.573 16.3539C160.818 16.1765 161.113 16.081 161.416 16.081C161.718 16.081 162.013 16.1765 162.258 16.3539C162.503 16.5313 162.686 16.7816 162.78 17.0691C162.796 17.2497 162.775 17.4316 162.717 17.6035C162.66 17.7755 162.567 17.9337 162.446 18.0685C162.325 18.2032 162.177 18.3116 162.012 18.3868C161.847 18.4621 161.669 18.5026 161.487 18.5058Z" fill="#EFEFEF"/>
<path d="M148.068 17.184C147.853 18.0461 147.407 18.6208 146.517 18.4915C146.338 18.4894 146.162 18.449 146 18.373C145.838 18.297 145.695 18.1873 145.579 18.0511C145.463 17.9149 145.378 17.7556 145.329 17.5837C145.28 17.4118 145.269 17.2314 145.295 17.0547C145.278 16.8649 145.304 16.6737 145.372 16.4954C145.439 16.317 145.546 16.1562 145.684 16.025C145.822 15.8937 145.988 15.7954 146.17 15.7373C146.351 15.6793 146.543 15.6631 146.732 15.6898C147.551 15.776 147.968 16.4082 148.068 17.184Z" fill="#EFEFEF"/>
<path d="M151.272 33.0169C151.157 34.2238 150.539 34.9709 149.304 34.9565C149.057 34.9733 148.81 34.9374 148.579 34.8511C148.347 34.7648 148.137 34.6302 147.961 34.4561C147.786 34.2821 147.65 34.0727 147.562 33.8419C147.473 33.6111 147.436 33.3641 147.45 33.1175C147.423 32.8561 147.455 32.592 147.543 32.3444C147.631 32.0968 147.773 31.8719 147.959 31.6861C148.144 31.5003 148.369 31.3583 148.617 31.2704C148.865 31.1825 149.129 31.1509 149.39 31.1779C149.635 31.1721 149.879 31.2155 150.107 31.3053C150.335 31.3952 150.543 31.5297 150.718 31.7011C150.894 31.8724 151.033 32.0771 151.128 32.3031C151.223 32.529 151.272 32.7718 151.272 33.0169Z" fill="#F7F7F7"/>
<path d="M158.7 34.9853C158.443 34.9868 158.188 34.9339 157.952 34.8299C157.716 34.7259 157.506 34.5732 157.333 34.3818C157.161 34.1905 157.031 33.9648 156.952 33.7196C156.873 33.4745 156.847 33.2154 156.875 32.9595C156.93 32.4822 157.162 32.0429 157.526 31.7292C157.89 31.4155 158.359 31.2503 158.839 31.2666C159.319 31.283 159.775 31.4795 160.117 31.8172C160.459 32.1549 160.661 32.6089 160.683 33.0888C160.694 33.3483 160.65 33.6071 160.553 33.8481C160.456 34.0891 160.309 34.3067 160.121 34.4862C159.933 34.6657 159.71 34.8031 159.465 34.8892C159.219 34.9752 158.959 35.008 158.7 34.9853Z" fill="#F2F2F2"/>
<path d="M207.693 21.9684C207.685 22.6937 207.391 23.3865 206.874 23.8953C206.357 24.4042 205.66 24.6877 204.935 24.6838C204.576 24.6957 204.219 24.6341 203.885 24.5028C203.551 24.3714 203.247 24.1731 202.993 23.9201C202.739 23.6671 202.539 23.3647 202.406 23.0315C202.273 22.6983 202.209 22.3414 202.219 21.9827C202.215 21.6231 202.283 21.2662 202.417 20.9326C202.552 20.599 202.751 20.2953 203.003 20.039C203.256 19.7826 203.556 19.5787 203.888 19.4388C204.219 19.299 204.575 19.2261 204.935 19.2242C205.655 19.2523 206.338 19.55 206.849 20.0583C207.36 20.5666 207.661 21.2484 207.693 21.9684Z" fill="#FCFCFC"/>
<path d="M195.021 14.8421C195.023 15.2004 194.953 15.5554 194.814 15.8855C194.674 16.2157 194.47 16.5141 194.212 16.7627C193.954 17.0113 193.648 17.2048 193.313 17.3316C192.978 17.4584 192.62 17.5157 192.262 17.5001C191.906 17.4897 191.555 17.4092 191.229 17.2632C190.904 17.1171 190.61 16.9084 190.365 16.6489C190.121 16.3894 189.929 16.0842 189.803 15.7508C189.676 15.4174 189.616 15.0622 189.626 14.7056C189.636 14.349 189.717 13.998 189.863 13.6725C190.009 13.347 190.218 13.0535 190.477 12.8087C190.737 12.5639 191.042 12.3725 191.375 12.2457C191.709 12.1188 192.064 12.0588 192.421 12.0692C192.776 12.0726 193.127 12.1479 193.452 12.2906C193.777 12.4334 194.07 12.6406 194.314 12.8998C194.557 13.1589 194.745 13.4647 194.866 13.7985C194.988 14.1323 195.04 14.4874 195.021 14.8421Z" fill="#FAFAFA"/>
<path d="M211.917 14.6985C211.951 15.0625 211.909 15.4296 211.793 15.7764C211.677 16.1231 211.49 16.4419 211.244 16.7123C210.998 16.9827 210.698 17.1988 210.364 17.3468C210.029 17.4949 209.668 17.5715 209.302 17.5719C208.93 17.6081 208.555 17.5676 208.2 17.4529C207.844 17.3382 207.516 17.1518 207.236 16.9053C206.955 16.6587 206.728 16.3572 206.569 16.0194C206.41 15.6815 206.321 15.3146 206.31 14.9413C206.298 14.568 206.363 14.1963 206.5 13.8491C206.638 13.5019 206.845 13.1866 207.11 12.9227C207.374 12.6589 207.69 12.4521 208.037 12.3152C208.385 12.1783 208.757 12.1141 209.13 12.1267C209.482 12.1093 209.835 12.1624 210.167 12.2828C210.499 12.4032 210.803 12.5886 211.063 12.828C211.322 13.0674 211.532 13.3561 211.678 13.6773C211.825 13.9984 211.906 14.3456 211.917 14.6985Z" fill="#FBFBFB"/>
<path d="M200.797 17.5145C200.073 17.5145 199.378 17.2269 198.866 16.7149C198.354 16.203 198.067 15.5086 198.067 14.7847C198.067 14.0607 198.354 13.3663 198.866 12.8544C199.378 12.3424 200.073 12.0548 200.797 12.0548C201.521 12.0548 202.215 12.3424 202.727 12.8544C203.239 13.3663 203.527 14.0607 203.527 14.7847C203.527 15.5086 203.239 16.203 202.727 16.7149C202.215 17.2269 201.521 17.5145 200.797 17.5145Z" fill="#FBFBFB"/>
<path d="M193.857 22.5431C193.831 21.8359 193.954 21.1312 194.216 20.4742C195.883 18.9225 197.521 18.8219 198.656 20.2299C199.002 20.6143 199.224 21.0941 199.293 21.6068C199.363 22.1194 199.276 22.641 199.044 23.1034C198.846 23.5859 198.504 23.9955 198.064 24.2758C197.624 24.5562 197.108 24.6937 196.587 24.6695C195.953 24.6993 195.329 24.5013 194.829 24.1113C194.328 23.7213 193.983 23.165 193.857 22.5431Z" fill="#FBFBFB"/>
<path d="M206.041 8.21874C205.926 9.02331 205.538 9.48307 204.805 9.48307C204.647 9.49977 204.487 9.4821 204.336 9.43126C204.185 9.38041 204.047 9.2976 203.931 9.18848C203.815 9.07936 203.724 8.9465 203.664 8.79897C203.604 8.65145 203.577 8.49273 203.584 8.33368C203.563 8.16127 203.581 7.98627 203.638 7.82214C203.695 7.65801 203.789 7.50914 203.912 7.387C204.036 7.26486 204.186 7.1727 204.351 7.11763C204.515 7.06255 204.691 7.04603 204.863 7.06934C205.61 7.08371 205.926 7.6153 206.041 8.21874Z" fill="#F4F4F4"/>
<path d="M196.544 7.05498C197.42 7.05498 197.894 7.45726 197.981 8.1469C198.01 8.31703 197.999 8.49152 197.951 8.65709C197.902 8.82266 197.816 8.97496 197.7 9.1024C197.584 9.22984 197.44 9.32907 197.279 9.39255C197.119 9.45602 196.946 9.48207 196.774 9.4687C196.616 9.4837 196.457 9.46414 196.307 9.41137C196.158 9.3586 196.021 9.27389 195.908 9.16314C195.794 9.05239 195.706 8.91824 195.65 8.77004C195.594 8.62183 195.57 8.46312 195.581 8.30494C195.552 8.01311 195.635 7.7211 195.814 7.48872C195.993 7.25634 196.254 7.10117 196.544 7.05498Z" fill="#EFEFEF"/>
<path d="M197.837 33.1175C197.837 33.3627 197.788 33.6054 197.693 33.8314C197.598 34.0573 197.459 34.262 197.283 34.4334C197.108 34.6047 196.9 34.7393 196.672 34.8291C196.444 34.919 196.2 34.9623 195.955 34.9565C195.706 34.9509 195.46 34.8962 195.232 34.7957C195.004 34.6951 194.799 34.5507 194.626 34.3706C194.279 34.0068 194.09 33.5199 194.101 33.0169C194.113 32.5139 194.324 32.0361 194.687 31.6885C195.051 31.3409 195.538 31.1521 196.041 31.1635C196.289 31.1688 196.533 31.2242 196.759 31.3263C196.985 31.4284 197.188 31.5751 197.356 31.7577C197.523 31.9402 197.652 32.1547 197.735 32.3884C197.818 32.6221 197.853 32.8701 197.837 33.1175Z" fill="#F6F6F6"/>
<path d="M205.48 34.9996C204.159 34.8991 203.44 34.2094 203.44 33.0457C203.482 32.5693 203.7 32.1258 204.053 31.8027C204.405 31.4796 204.866 31.3003 205.344 31.3003C205.822 31.3003 206.283 31.4796 206.635 31.8027C206.988 32.1258 207.206 32.5693 207.248 33.0457C207.261 33.2903 207.226 33.5352 207.144 33.7661C207.063 33.9971 206.936 34.2096 206.772 34.3913C206.607 34.573 206.409 34.7203 206.187 34.8248C205.965 34.9292 205.725 34.9886 205.48 34.9996Z" fill="#F4F4F4"/>
<path d="M288.065 14.914C289.021 14.4681 289.858 13.8021 290.507 12.9705C291.156 12.1389 291.599 11.1654 291.8 10.1296C292.075 8.92164 292.052 7.66475 291.731 6.46799C291.411 5.27122 290.803 4.17072 289.961 3.26197C291.319 2.79412 292.749 2.57037 294.185 2.60107L296.656 3.17577C295.432 4.56857 294.7 6.32553 294.573 8.17563C294.509 9.96217 295.102 11.7102 296.24 13.0893C297.142 14.241 298.383 15.0807 299.787 15.4905C301.192 15.9003 302.69 15.8594 304.07 15.3737L305.291 15.1726C305.262 17.0592 304.768 18.9096 303.854 20.5604C302.52 19.1387 300.912 18.0012 299.127 17.2161C297.342 16.4311 295.417 16.0145 293.467 15.9915C291.492 15.9812 289.536 16.3807 287.723 17.1646C285.911 17.9485 284.28 19.0999 282.935 20.546C281.938 18.8949 281.384 17.0144 281.326 15.0864C282.39 15.5663 283.548 15.8 284.715 15.7702C285.882 15.7403 287.027 15.4477 288.065 14.914Z" fill="#FCFCFC"/>
<path d="M306.038 8.69286C306.038 9.91222 305.554 11.0816 304.692 11.9438C303.829 12.8061 302.66 13.2904 301.441 13.2904C300.221 13.283 299.053 12.7971 298.188 11.9373C297.322 11.0775 296.829 9.91251 296.814 8.69286C296.814 8.08721 296.934 7.48749 297.165 6.92795C297.397 6.3684 297.737 5.85998 298.165 5.43172C298.593 5.00346 299.102 4.66375 299.661 4.43198C300.221 4.20021 300.821 4.08092 301.426 4.08092C302.032 4.08092 302.632 4.20021 303.191 4.43198C303.751 4.66375 304.259 5.00346 304.687 5.43172C305.116 5.85998 305.455 6.3684 305.687 6.92795C305.919 7.48749 306.038 8.08721 306.038 8.69286Z" fill="#FCFCFC"/>
<path d="M289.774 8.69286C289.809 9.32113 289.716 9.94993 289.499 10.5408C289.283 11.1317 288.949 11.6723 288.516 12.1295C288.084 12.5866 287.563 12.9508 286.985 13.1997C286.407 13.4485 285.784 13.5769 285.155 13.5769C284.526 13.5769 283.903 13.4485 283.325 13.1997C282.747 12.9508 282.226 12.5866 281.794 12.1295C281.362 11.6723 281.027 11.1317 280.811 10.5408C280.594 9.94993 280.501 9.32113 280.536 8.69286C280.602 7.51234 281.117 6.40183 281.976 5.5894C282.835 4.77696 283.973 4.32426 285.155 4.32426C286.337 4.32426 287.475 4.77696 288.334 5.5894C289.193 6.40183 289.708 7.51234 289.774 8.69286Z" fill="#FCFCFC"/>
<path d="M293.51 19.1524L295.306 20.1437C295.684 20.6909 295.835 21.3632 295.728 22.0195C295.621 22.6758 295.263 23.2651 294.731 23.6637C294.326 23.9952 293.818 24.1763 293.294 24.1763C292.771 24.1763 292.263 23.9952 291.858 23.6637C291.442 23.4014 291.122 23.0129 290.944 22.5553C290.765 22.0976 290.738 21.5949 290.866 21.1207C291.004 20.5336 291.345 20.014 291.829 19.6539C292.312 19.2937 292.908 19.1161 293.51 19.1524Z" fill="#F8F8F8"/>
<path d="M286.656 21.1494C286.815 21.4341 286.936 21.7384 287.016 22.0546C287.055 22.1776 287.066 22.3077 287.049 22.4357C287.032 22.5636 286.986 22.6861 286.916 22.7946C286.846 22.903 286.753 22.9946 286.644 23.0629C286.534 23.1312 286.411 23.1745 286.283 23.1896C286.057 23.2388 285.82 23.2049 285.617 23.0941C285.414 22.9832 285.258 22.8029 285.177 22.5862C284.889 22.0546 285.177 21.7529 285.55 21.4224C285.924 21.092 286.312 21.2787 286.685 21.1782L286.656 21.1494Z" fill="#F6F6F6"/>
<path d="M114.836 12.7876C116.072 12.9744 116.632 13.6927 116.546 14.7128C116.51 15.1853 116.287 15.6241 115.928 15.9326C115.568 16.2411 115.101 16.3941 114.628 16.3579C114.156 16.3217 113.717 16.0993 113.408 15.7396C113.1 15.3799 112.947 14.9123 112.983 14.4398C112.986 14.2062 113.037 13.9757 113.134 13.7631C113.231 13.5505 113.371 13.3604 113.545 13.2049C113.72 13.0495 113.924 12.932 114.147 12.8602C114.369 12.7883 114.604 12.7636 114.836 12.7876Z" fill="#F9F9F9"/>
<path d="M101.992 14.6553C101.941 15.0987 101.726 15.5069 101.389 15.7993C101.052 16.0917 100.617 16.2469 100.171 16.2343C99.7252 16.2216 99.3002 16.042 98.9802 15.731C98.6601 15.4201 98.4685 15.0003 98.4431 14.5548C98.4251 14.3092 98.4627 14.0628 98.5531 13.8338C98.6436 13.6048 98.7844 13.3991 98.9653 13.2321C99.1461 13.065 99.3623 12.9409 99.5978 12.8689C99.8332 12.7969 100.082 12.7789 100.325 12.8163C101.417 12.8451 101.906 13.5347 101.992 14.6553Z" fill="#F9F9F9"/>
<path d="M108.414 3.7792C108.877 3.92658 109.303 4.16881 109.667 4.49041C110.031 4.81201 110.323 5.20591 110.526 5.64697C110.18 6.02567 109.988 6.52026 109.988 7.03342C109.988 7.54659 110.18 8.04118 110.526 8.41988C110.329 8.85969 110.037 9.25092 109.672 9.56614C109.307 9.88135 108.878 10.1129 108.414 10.2445C108.141 9.98593 108.184 9.62675 108.141 9.29629C108.124 9.13711 108.052 8.98905 107.936 8.87852C107.82 8.768 107.669 8.7022 107.509 8.69286C106.977 8.69286 106.891 9.06642 106.891 9.51181C106.913 9.66431 106.913 9.81906 106.891 9.97156C106.805 10.2158 106.676 10.3739 106.388 10.2445C105.426 9.69858 104.19 9.35376 104.707 7.80208H104.937C105.282 7.68714 105.771 7.71588 105.828 7.22738C105.885 6.73889 105.339 6.62395 104.937 6.49464H104.707C104.219 4.95733 105.397 4.56941 106.388 4.05218C106.458 4.02244 106.536 4.01476 106.61 4.03017C106.685 4.04557 106.753 4.08332 106.805 4.13839C106.873 4.2872 106.907 4.44903 106.906 4.61251C106.906 5.08664 106.906 5.60386 107.523 5.60386C108.141 5.60386 108.184 5.21594 108.184 4.75619C108.147 4.5865 108.149 4.41069 108.188 4.24164C108.228 4.07258 108.305 3.91458 108.414 3.7792Z" fill="#F7F7F7"/>
<path d="M108.414 3.7792C108.543 4.15553 108.625 4.54644 108.658 4.94296C108.655 5.17365 108.578 5.39725 108.439 5.58088C108.299 5.76451 108.104 5.89847 107.883 5.96305C107.672 6.06133 107.433 6.08354 107.208 6.02591C106.983 5.96828 106.785 5.83437 106.647 5.64697C106.331 5.20158 105.972 4.66998 106.747 4.21022C106.88 4.36904 107.024 4.51791 107.178 4.65561C107.043 4.49858 106.888 4.35867 106.719 4.23896L106.374 3.8223C106.684 3.64588 107.032 3.54954 107.389 3.54202C107.745 3.53449 108.097 3.61601 108.414 3.7792Z" fill="#6A6A6A"/>
<path d="M106.374 10.1296L106.719 9.72732C106.882 9.59505 107.036 9.451 107.178 9.29629L106.733 9.74168C105.986 9.3394 106.316 8.8078 106.633 8.30494C106.772 8.11969 106.97 7.98745 107.195 7.92999C107.419 7.87254 107.657 7.8933 107.868 7.98886C108.115 8.06766 108.33 8.22585 108.478 8.43888C108.626 8.6519 108.699 8.90784 108.687 9.16699C108.64 9.50023 108.558 9.82766 108.443 10.144C108.125 10.3179 107.769 10.4079 107.407 10.4054C107.044 10.4029 106.689 10.3079 106.374 10.1296Z" fill="#6A6A6A"/>
<path d="M110.526 8.41988C110.411 8.31931 110.282 8.13253 110.181 8.13253C109.291 8.2331 108.457 8.13253 108.457 7.02624C108.457 5.91995 109.291 5.81938 110.181 5.93431C110.282 5.93431 110.411 5.74754 110.526 5.64697C110.76 6.07163 110.883 6.54859 110.883 7.03342C110.883 7.51826 110.76 7.99521 110.526 8.41988Z" fill="#646464"/>
<path d="M104.693 7.74461C104.532 7.27922 104.532 6.77326 104.693 6.30787C105.454 5.94868 106.13 6.13546 106.13 6.98314C106.13 7.83082 105.426 8.01759 104.693 7.65841V7.74461Z" fill="#F4F4F4"/>
<path d="M106.46 25.1867C105.926 25.0246 105.444 24.726 105.061 24.3203C104.678 23.9146 104.407 23.4159 104.276 22.8735C104.414 22.7727 104.58 22.7175 104.75 22.7155C105.282 22.7155 105.842 22.7155 105.857 21.9971C105.871 21.2787 105.268 21.3218 104.765 21.3218C104.594 21.3198 104.428 21.2646 104.291 21.1638C104.384 20.5521 104.672 19.9868 105.112 19.552C105.552 19.1171 106.12 18.8358 106.733 18.7501C106.852 19.0006 106.902 19.2784 106.877 19.5546C106.877 20.0144 107.078 20.388 107.538 20.3592C108.299 20.2874 108.17 19.7271 108.026 19.2242C108.026 19.138 108.026 19.0661 108.026 18.9799C108.073 18.918 108.111 18.8504 108.141 18.7788C109.492 18.7788 110.138 19.6839 110.641 20.7615C110.641 21.5661 109.808 21.0776 109.52 21.4655L109.233 21.7672C108.989 22.385 109.362 22.5574 109.836 22.7011C110.311 22.8448 110.699 22.5431 110.612 23.2327C110.415 23.747 110.087 24.2012 109.661 24.5512C109.236 24.9012 108.727 25.135 108.184 25.2298C107.94 24.9568 108.184 24.6838 108.184 24.3965C108.084 23.5775 107.897 22.9597 107.049 23.8936C106.776 24.3246 106.834 24.8419 106.46 25.1867Z" fill="#F7F7F7"/>
<path d="M104.291 21.1638C104.966 20.8477 105.727 20.4885 106.245 21.2931C106.413 21.4946 106.505 21.7489 106.505 22.0115C106.505 22.2741 106.413 22.5283 106.245 22.7298C106.149 22.872 106.024 22.9926 105.879 23.084C105.734 23.1755 105.572 23.2357 105.402 23.2609C105.232 23.2861 105.059 23.2758 104.894 23.2305C104.729 23.1852 104.575 23.106 104.441 22.9979C104.308 22.8899 104.199 22.7553 104.121 22.6027C104.043 22.4501 103.997 22.2829 103.987 22.1118C103.977 21.9406 104.002 21.7692 104.062 21.6085C104.122 21.4477 104.214 21.3012 104.334 21.1782L104.291 21.1638Z" fill="#5E5E5E"/>
<path d="M108.098 19.0805C108.931 19.3966 108.759 19.9857 108.4 20.5173C108.261 20.7315 108.047 20.8868 107.801 20.9531C107.554 21.0194 107.291 20.9921 107.064 20.8764C106.816 20.8058 106.606 20.642 106.478 20.4195C106.349 20.1971 106.312 19.9333 106.374 19.684C106.46 19.3699 106.58 19.0663 106.733 18.7788C107.207 18.3334 107.681 18.2472 108.17 18.7788C108.204 18.8218 108.222 18.875 108.222 18.9297C108.222 18.9844 108.204 19.0375 108.17 19.0805C108.008 19.2093 107.858 19.3536 107.724 19.5115C107.859 19.3766 107.984 19.2326 108.098 19.0805Z" fill="#5E5E5E"/>
<path d="M110.598 23.2614C110.21 22.6436 109.722 23.5057 109.276 23.1465C108.831 22.7873 108.457 22.5574 108.457 21.9827C108.457 21.408 108.745 21.4511 109.118 21.5661C109.234 21.6822 109.365 21.7836 109.506 21.8678C109.506 21.523 109.291 21.4655 109.089 21.3362C109.233 20.115 110.253 21.3362 110.627 20.7902C110.831 21.171 110.936 21.5974 110.931 22.0295C110.926 22.4617 110.811 22.8855 110.598 23.2614Z" fill="#6A6A6A"/>
<path d="M108.472 24.612L108.17 25.2585C107.595 25.2585 107.02 25.5028 106.46 25.1867C106.46 24.5976 106.13 23.9511 106.647 23.4195C106.784 23.4721 106.903 23.5616 106.992 23.6781C107.236 24.2815 107.71 24.2384 108.213 24.1379C108.457 24.2097 108.644 24.3246 108.472 24.612Z" fill="#474747"/>
<path d="M22.8848 9.03768C22.8475 9.8356 22.4953 10.5862 21.9055 11.1248C21.3157 11.6635 20.5363 11.9463 19.7383 11.9112C18.9722 11.8761 18.2469 11.5561 17.7047 11.0138C17.1624 10.4716 16.8424 9.74627 16.8073 8.98021C16.8073 8.17239 17.1282 7.39765 17.6995 6.82644C18.2707 6.25522 19.0454 5.93431 19.8532 5.93431C20.661 5.93431 21.4358 6.25522 22.007 6.82644C22.5782 7.39765 22.8991 8.17239 22.8991 8.98021L22.8848 9.03768Z" fill="#FAFAFA"/>
<path d="M11.8649 9.03768C11.8277 9.8356 11.4755 10.5862 10.8857 11.1248C10.2958 11.6635 9.51648 11.9463 8.71846 11.9112C8.30972 11.9305 7.90135 11.8658 7.51866 11.7208C7.13598 11.5759 6.78714 11.3539 6.49375 11.0687C6.20037 10.7834 5.96869 10.4409 5.81309 10.0625C5.65748 9.68401 5.58126 9.27762 5.58915 8.86849C5.59703 8.45936 5.68886 8.05621 5.85894 7.68403C6.02901 7.31184 6.27371 6.97855 6.57788 6.7048C6.88204 6.43106 7.23918 6.2227 7.62716 6.09264C8.01515 5.96257 8.42571 5.91358 8.8334 5.94868C9.23695 5.94665 9.6368 6.02558 10.0093 6.18083C10.3818 6.33607 10.7194 6.56446 11.002 6.85248C11.2847 7.14049 11.5067 7.48229 11.6549 7.85764C11.8031 8.23298 11.8745 8.63424 11.8649 9.03768Z" fill="#FAFAFA"/>
<path d="M14.2643 24.9568C13.8652 24.9627 13.4691 24.8881 13.0994 24.7377C12.7298 24.5872 12.3942 24.3639 12.1127 24.081C11.8311 23.7982 11.6094 23.4615 11.4607 23.0912C11.312 22.7208 11.2394 22.3243 11.2471 21.9253C11.2443 21.321 11.4213 20.7296 11.7555 20.2262C12.0898 19.7228 12.5662 19.3302 13.1242 19.0983C13.6821 18.8665 14.2965 18.8058 14.8891 18.924C15.4816 19.0423 16.0256 19.3341 16.4519 19.7624C16.8781 20.1907 17.1674 20.7361 17.2828 21.3292C17.3982 21.9223 17.3346 22.5364 17.1001 23.0932C16.8656 23.6501 16.4707 24.1247 15.9658 24.4565C15.4608 24.7883 14.8685 24.9625 14.2643 24.9568Z" fill="#FCFCFC"/>
<path d="M8.30181 17.184C8.15813 18.003 7.72711 18.5346 6.86507 18.4771C6.69717 18.4775 6.531 18.4433 6.37692 18.3766C6.22284 18.3099 6.08416 18.2122 5.96956 18.0895C5.85495 17.9668 5.76688 17.8218 5.71083 17.6635C5.65479 17.5052 5.63198 17.3371 5.64383 17.1696C5.62351 16.976 5.64671 16.7802 5.71172 16.5967C5.77674 16.4131 5.88194 16.2464 6.01963 16.1087C6.15733 15.971 6.32404 15.8658 6.5076 15.8008C6.69115 15.7358 6.88691 15.7126 7.08058 15.7329C7.43398 15.7658 7.76023 15.9365 7.98877 16.208C8.21731 16.4796 8.32977 16.8302 8.30181 17.184Z" fill="#F4F4F4"/>
<path d="M23.129 17.2128C23.1233 17.4012 23.0774 17.5862 22.9944 17.7555C22.9113 17.9247 22.793 18.0742 22.6474 18.194C22.5018 18.3137 22.3323 18.4009 22.1502 18.4498C21.9681 18.4986 21.7777 18.5079 21.5917 18.4771C21.4159 18.4713 21.2434 18.428 21.0856 18.3501C20.9279 18.2723 20.7886 18.1616 20.6771 18.0256C20.5656 17.8896 20.4844 17.7314 20.4389 17.5614C20.3935 17.3915 20.3848 17.2139 20.4136 17.0403C20.4073 16.8645 20.4378 16.6893 20.5031 16.5259C20.5684 16.3625 20.6671 16.2145 20.7928 16.0915C20.9186 15.9684 21.0687 15.8729 21.2334 15.8112C21.3982 15.7495 21.5741 15.7228 21.7497 15.7329C21.9416 15.7256 22.1327 15.7597 22.3102 15.8329C22.4876 15.9061 22.6472 16.0167 22.7781 16.1571C22.909 16.2975 23.0081 16.4645 23.0686 16.6467C23.1292 16.8288 23.1498 17.0219 23.129 17.2128Z" fill="#F7F7F7"/>
<path d="M243.698 16.5087C243.697 17.3684 243.439 18.2083 242.958 18.9203C242.476 19.6324 241.792 20.1842 240.995 20.5047C240.197 20.8252 239.322 20.8999 238.481 20.7192C237.641 20.5384 236.874 20.1104 236.278 19.4903C235.683 18.8701 235.287 18.0861 235.14 17.2389C234.994 16.3918 235.104 15.5203 235.457 14.7363C235.81 13.9524 236.389 13.2919 237.12 12.8396C237.851 12.3874 238.701 12.1641 239.56 12.1985C240.117 12.204 240.666 12.3205 241.177 12.5412C241.688 12.7619 242.15 13.0824 242.535 13.4838C242.92 13.8853 243.222 14.3596 243.421 14.879C243.621 15.3985 243.715 15.9525 243.698 16.5087Z" fill="#FAFAFA"/>
<path d="M255.177 12.1698C256.296 12.1692 257.371 12.6035 258.176 13.381C258.98 14.1585 259.45 15.2183 259.488 16.3363C259.501 16.9108 259.399 17.4821 259.189 18.0167C258.978 18.5513 258.663 19.0384 258.261 19.4494C257.86 19.8603 257.38 20.1868 256.85 20.4097C256.321 20.6326 255.752 20.7473 255.177 20.7471C254.042 20.7215 252.961 20.2592 252.158 19.4564C251.355 18.6535 250.893 17.572 250.867 16.4369C250.879 15.3013 251.338 14.216 252.145 13.4169C252.952 12.6179 254.042 12.1697 255.177 12.1698Z" fill="#FDFDFD"/>
<path d="M250.206 24.6982C250.22 25.0546 250.162 25.4101 250.037 25.744C249.911 26.0779 249.721 26.3835 249.476 26.6429C249.231 26.9024 248.937 27.1105 248.611 27.2551C248.285 27.3998 247.934 27.4781 247.577 27.4855C247.205 27.501 246.834 27.4411 246.486 27.3094C246.138 27.1777 245.82 26.977 245.552 26.7193C245.283 26.4616 245.07 26.1522 244.924 25.8098C244.778 25.4674 244.703 25.0991 244.704 24.7269C244.735 24.0093 245.034 23.3295 245.542 22.8216C246.05 22.3136 246.73 22.0144 247.448 21.9827C248.172 21.9827 248.867 22.2674 249.383 22.7754C249.899 23.2834 250.195 23.9741 250.206 24.6982Z" fill="#FBFBFB"/>
<path d="M247.132 10.1296C246.905 10.134 246.681 10.0915 246.472 10.0047C246.263 9.91796 246.074 9.78884 245.917 9.6255C245.761 9.46217 245.64 9.26816 245.562 9.05571C245.484 8.84326 245.451 8.61699 245.465 8.39115C245.465 8.16096 245.51 7.93303 245.598 7.72037C245.687 7.50771 245.816 7.31448 245.978 7.15171C246.141 6.98895 246.334 6.85983 246.547 6.77174C246.76 6.68366 246.988 6.63832 247.218 6.63832C247.448 6.63832 247.676 6.68366 247.889 6.77174C248.101 6.85983 248.295 6.98895 248.457 7.15171C248.62 7.31448 248.749 7.50771 248.837 7.72037C248.925 7.93303 248.971 8.16096 248.971 8.39115C248.978 8.63 248.934 8.86763 248.843 9.08844C248.751 9.30926 248.614 9.50827 248.441 9.67242C248.267 9.83658 248.061 9.96217 247.835 10.041C247.609 10.1197 247.37 10.15 247.132 10.1296Z" fill="#F5F5F5"/>
<path d="M247.204 15.6898C246.98 15.6899 246.758 15.6419 246.554 15.5492C246.351 15.4565 246.169 15.3211 246.022 15.1523C245.875 14.9835 245.766 14.785 245.702 14.5704C245.638 14.3558 245.621 14.13 245.652 13.9082C245.626 13.68 245.653 13.449 245.729 13.2325C245.806 13.016 245.93 12.8195 246.093 12.6578C246.256 12.4962 246.454 12.3735 246.671 12.2989C246.888 12.2243 247.119 12.1998 247.347 12.2273C247.591 12.204 247.837 12.2371 248.065 12.324C248.294 12.411 248.5 12.5494 248.666 12.7286C248.833 12.9078 248.956 13.123 249.027 13.3574C249.097 13.5919 249.112 13.8393 249.071 14.0806C249.014 15.1295 248.339 15.6754 247.204 15.6898Z" fill="#F7F7F7"/>
<path d="M251.155 8.31931C251.149 8.09215 251.192 7.86645 251.281 7.65732C251.37 7.4482 251.503 7.26049 251.67 7.10676C251.837 6.95304 252.036 6.83684 252.251 6.76596C252.467 6.69508 252.696 6.67116 252.922 6.69579C253.15 6.67077 253.382 6.69742 253.599 6.77377C253.816 6.85012 254.013 6.97423 254.176 7.13694C254.339 7.29965 254.463 7.49682 254.539 7.71389C254.615 7.93096 254.642 8.1624 254.617 8.39115C254.643 8.63591 254.611 8.88329 254.526 9.11393C254.44 9.34456 254.302 9.55219 254.122 9.72056C253.943 9.88892 253.727 10.0135 253.491 10.0844C253.255 10.1554 253.006 10.1709 252.764 10.1296C251.686 10.1296 251.183 9.41123 251.155 8.31931Z" fill="#F5F5F5"/>
<path d="M241.543 10.1296C241.318 10.1438 241.093 10.1108 240.882 10.0327C240.671 9.95452 240.479 9.833 240.318 9.67595C240.157 9.51889 240.03 9.3298 239.947 9.12087C239.863 8.91194 239.825 8.68782 239.833 8.46298C239.811 8.22432 239.839 7.98371 239.916 7.75653C239.992 7.52935 240.115 7.32059 240.276 7.14356C240.438 6.96653 240.635 6.82513 240.854 6.72838C241.073 6.63164 241.31 6.58167 241.55 6.58167C241.79 6.58167 242.027 6.63164 242.246 6.72838C242.465 6.82513 242.662 6.96653 242.823 7.14356C242.985 7.32059 243.108 7.52935 243.184 7.75653C243.261 7.98371 243.289 8.22432 243.267 8.46298C243.273 8.68852 243.233 8.91292 243.147 9.12187C243.062 9.33081 242.935 9.51972 242.772 9.67654C242.61 9.83335 242.417 9.95463 242.205 10.0326C241.994 10.1107 241.768 10.1437 241.543 10.1296Z" fill="#F7F7F7"/>
<path d="M242.979 24.6551C242.979 24.8773 242.931 25.0969 242.841 25.2997C242.75 25.5025 242.618 25.6842 242.453 25.833C242.288 25.9818 242.093 26.0945 241.882 26.1638C241.671 26.2331 241.448 26.2575 241.227 26.2355C240.982 26.2489 240.737 26.2076 240.509 26.1144C240.282 26.0213 240.079 25.8788 239.914 25.6971C239.749 25.5155 239.626 25.2994 239.555 25.0645C239.484 24.8295 239.466 24.5817 239.503 24.339C239.498 24.1061 239.544 23.875 239.638 23.6619C239.732 23.4488 239.872 23.2589 240.047 23.1056C240.222 22.9522 240.429 22.8391 240.653 22.7742C240.876 22.7092 241.111 22.6941 241.342 22.7298C241.582 22.7311 241.819 22.7841 242.036 22.8854C242.254 22.9866 242.447 23.1337 242.602 23.3165C242.758 23.4993 242.872 23.7136 242.937 23.9446C243.002 24.1756 243.017 24.418 242.979 24.6551Z" fill="#F2F2F2"/>
<path d="M72.2369 14.7703C72.2397 15.3102 72.0824 15.8388 71.7848 16.2893C71.4872 16.7398 71.0627 17.0919 70.565 17.3011C70.0673 17.5103 69.5187 17.5673 68.9886 17.4647C68.4586 17.3622 67.9708 17.1048 67.587 16.725C67.2033 16.3453 66.9407 15.8602 66.8326 15.3313C66.7245 14.8023 66.7757 14.2532 66.9796 13.7533C67.1836 13.2534 67.5312 12.8252 67.9786 12.5229C68.4259 12.2206 68.9528 12.0577 69.4927 12.0548C69.8517 12.051 70.2079 12.1185 70.5407 12.2532C70.8735 12.388 71.1762 12.5874 71.4314 12.8399C71.6866 13.0925 71.8892 13.3931 72.0275 13.7245C72.1657 14.0558 72.2369 14.4113 72.2369 14.7703Z" fill="#F9F9F9"/>
<path d="M52.5391 17.5001C52.1808 17.4984 51.8264 17.4247 51.4972 17.2833C51.1679 17.1419 50.8704 16.9357 50.6224 16.677C50.3744 16.4183 50.181 16.1124 50.0537 15.7774C49.9263 15.4424 49.8677 15.0853 49.8812 14.7272C49.8899 14.1862 50.0592 13.66 50.3676 13.2154C50.676 12.7708 51.1095 12.4279 51.6132 12.2302C52.1168 12.0325 52.6679 11.9889 53.1964 12.105C53.7248 12.2211 54.2069 12.4916 54.5813 12.8822C54.9557 13.2728 55.2056 13.7659 55.2992 14.2988C55.3929 14.8317 55.326 15.3804 55.1072 15.8753C54.8884 16.3701 54.5274 16.7888 54.0702 17.0781C53.6129 17.3674 53.08 17.5143 52.5391 17.5001Z" fill="#FCFCFC"/>
<path d="M63.7601 14.799C63.768 15.1571 63.7031 15.5131 63.5693 15.8453C63.4354 16.1776 63.2354 16.4791 62.9815 16.7318C62.7275 16.9844 62.4249 17.1827 62.092 17.3148C61.759 17.4469 61.4027 17.5099 61.0447 17.5001C60.6863 17.502 60.3312 17.4326 59.9999 17.2959C59.6686 17.1593 59.3679 16.958 59.1152 16.704C58.8624 16.4499 58.6628 16.1481 58.5279 15.8161C58.3929 15.4841 58.3254 15.1286 58.3292 14.7703C58.3292 14.0501 58.6153 13.3594 59.1245 12.8502C59.6338 12.3409 60.3245 12.0548 61.0447 12.0548C61.7648 12.0548 62.4555 12.3409 62.9648 12.8502C63.474 13.3594 63.7601 14.0501 63.7601 14.7703V14.799Z" fill="#FBFBFB"/>
<path d="M65.1681 19.2098C65.8884 19.2342 66.5733 19.5283 67.0869 20.034C67.6006 20.5396 67.9054 21.2198 67.941 21.9396C67.941 22.6636 67.6534 23.358 67.1415 23.8699C66.6295 24.3818 65.9352 24.6695 65.2112 24.6695C64.4872 24.6695 63.7929 24.3818 63.2809 23.8699C62.769 23.358 62.4814 22.6636 62.4814 21.9396C62.5153 21.2339 62.808 20.5654 63.3036 20.0618C63.7992 19.5583 64.463 19.2549 65.1681 19.2098Z" fill="#FAFAFA"/>
<path d="M59.5792 22.0833C59.5821 22.4423 59.5106 22.798 59.3693 23.1281C59.228 23.4581 59.0198 23.7553 58.758 24.001C58.4962 24.2466 58.1863 24.4354 57.8479 24.5554C57.5096 24.6754 57.15 24.724 56.7919 24.6982C56.4277 24.6892 56.069 24.607 55.7372 24.4564C55.4055 24.3059 55.1074 24.0902 54.8607 23.8221C54.614 23.554 54.4238 23.239 54.3015 22.8958C54.1791 22.5527 54.127 22.1884 54.1483 21.8247C54.2062 21.1031 54.5343 20.43 55.0671 19.9399C55.5998 19.4498 56.2979 19.1788 57.0218 19.1811C57.3838 19.1932 57.7396 19.2793 58.0672 19.4339C58.3948 19.5885 58.6873 19.8085 58.9268 20.0803C59.1663 20.3521 59.3477 20.67 59.4599 21.0144C59.5721 21.3589 59.6127 21.7226 59.5792 22.0833Z" fill="#F9F9F9"/>
<path d="M66.3175 8.31931C66.1595 8.99458 65.8146 9.49744 65.0532 9.4687C64.8805 9.4829 64.7069 9.45579 64.5467 9.38961C64.3866 9.32344 64.2445 9.2201 64.1322 9.08815C64.0199 8.95619 63.9406 8.7994 63.9009 8.63073C63.8612 8.46207 63.8622 8.28637 63.9038 8.11817C63.9052 7.96044 63.9413 7.80496 64.0094 7.66269C64.0775 7.52042 64.176 7.39483 64.2979 7.2948C64.4199 7.19477 64.5623 7.12274 64.7151 7.08378C64.868 7.04482 65.0275 7.03989 65.1825 7.06934C65.4962 7.09144 65.7894 7.23373 66.0008 7.46658C66.2122 7.69944 66.3257 8.00489 66.3175 8.31931Z" fill="#F0F0F0"/>
<path d="M57.1798 9.49744C56.289 9.49744 55.8293 9.00895 55.8149 8.31931C55.7988 8.14675 55.8214 7.97276 55.8811 7.81005C55.9408 7.64734 56.0361 7.50002 56.16 7.37886C56.2839 7.25769 56.4334 7.16573 56.5974 7.10969C56.7614 7.05366 56.9358 7.03496 57.108 7.05498C57.2667 7.05391 57.4238 7.08658 57.569 7.1508C57.7141 7.21503 57.8439 7.30935 57.9499 7.42752C58.0558 7.54569 58.1355 7.68502 58.1835 7.83628C58.2316 7.98755 58.247 8.14729 58.2286 8.30494C58.2384 8.45217 58.219 8.59988 58.1715 8.73959C58.124 8.87929 58.0494 9.00824 57.9519 9.11904C57.8545 9.22984 57.7361 9.3203 57.6036 9.38524C57.4711 9.45017 57.3271 9.4883 57.1798 9.49744Z" fill="#F1F1F1"/>
<path d="M301.469 9.41123C300.938 9.26756 300.693 8.99458 300.765 8.53482C300.773 8.44958 300.8 8.36704 300.842 8.29269C300.885 8.21835 300.942 8.15389 301.012 8.10361C301.081 8.05332 301.16 8.01837 301.244 8.00106C301.328 7.98375 301.414 7.98449 301.498 8.00323C301.583 8.00116 301.667 8.01658 301.746 8.04853C301.824 8.08048 301.896 8.12827 301.955 8.18893C302.014 8.24958 302.06 8.3218 302.09 8.40109C302.121 8.48037 302.134 8.56502 302.13 8.64976C302.145 9.10952 301.785 9.29629 301.469 9.41123Z" fill="#303030"/>
<path d="M285.22 9.36813C285.134 9.376 285.048 9.36642 284.967 9.33999C284.885 9.31356 284.81 9.27083 284.745 9.21439C284.681 9.15794 284.629 9.08897 284.592 9.01167C284.555 8.93436 284.534 8.85034 284.53 8.7647C284.504 8.68325 284.496 8.597 284.508 8.51225C284.519 8.42749 284.55 8.34636 284.596 8.27477C284.643 8.20319 284.705 8.14295 284.778 8.09846C284.851 8.05397 284.934 8.02634 285.019 8.01759C285.118 7.98777 285.223 7.9833 285.324 8.0046C285.425 8.02589 285.519 8.07228 285.598 8.13949C285.677 8.20671 285.737 8.2926 285.774 8.38928C285.811 8.48597 285.823 8.59035 285.809 8.69286C285.802 8.85551 285.74 9.01092 285.632 9.1336C285.525 9.25629 285.38 9.33898 285.22 9.36813Z" fill="#1E1E1E"/>
<path d="M104.65 7.71588C105.196 7.62967 106.087 7.96012 106 6.9544C105.914 5.94868 105.153 6.43718 104.65 6.36534C105.11 5.64697 105.684 5.83374 106.087 6.27913C106.184 6.37174 106.261 6.48317 106.314 6.60666C106.367 6.73015 106.395 6.86313 106.395 6.99751C106.395 7.13188 106.367 7.26486 106.314 7.38835C106.261 7.51184 106.184 7.62327 106.087 7.71588C105.699 8.21874 105.11 8.43425 104.65 7.71588Z" fill="#4F4F4F"/>
<path d="M106.719 4.29643C107.193 4.42573 107.911 3.83667 108.155 4.74182C108.179 4.82484 108.186 4.9118 108.176 4.99756C108.166 5.08333 108.138 5.16616 108.095 5.24116C108.053 5.31616 107.995 5.38181 107.926 5.43424C107.858 5.48666 107.779 5.5248 107.696 5.54639C106.747 5.6326 106.906 4.84239 106.805 4.26769L106.719 4.29643Z" fill="#F4F4F4"/>
<path d="M106.733 9.79915C106.877 9.26756 106.733 8.43425 107.624 8.52045C107.709 8.54045 107.789 8.57744 107.859 8.62918C107.929 8.68093 107.988 8.74636 108.033 8.82153C108.077 8.89671 108.106 8.98007 108.117 9.0666C108.128 9.15313 108.122 9.24104 108.098 9.32503C107.911 10.2302 107.178 9.61238 106.661 9.78479L106.733 9.79915Z" fill="#F8F8F8"/>
<path d="M109.736 7.70151C109.639 7.71873 109.539 7.714 109.444 7.68766C109.349 7.66131 109.261 7.61403 109.187 7.54928C109.112 7.48453 109.053 7.40394 109.014 7.31344C108.975 7.22293 108.956 7.1248 108.96 7.02624C108.954 6.94156 108.966 6.85656 108.994 6.77656C109.022 6.69656 109.067 6.62326 109.125 6.56125C109.183 6.49924 109.253 6.44984 109.331 6.41613C109.409 6.38242 109.493 6.36513 109.578 6.36534C109.675 6.34522 109.776 6.34788 109.872 6.37312C109.969 6.39836 110.058 6.44549 110.133 6.51084C110.208 6.5762 110.267 6.65801 110.305 6.7499C110.344 6.84179 110.36 6.94127 110.354 7.04061C110.36 7.12529 110.348 7.21028 110.32 7.29029C110.291 7.37029 110.247 7.44358 110.189 7.5056C110.131 7.56761 110.061 7.61701 109.983 7.65072C109.905 7.68443 109.821 7.70172 109.736 7.70151Z" fill="#EEEEEE"/>
<path d="M109.089 21.3362C109.75 21.1351 110.268 21.3362 110.339 22.0402C110.34 22.127 110.322 22.2129 110.287 22.2925C110.253 22.3722 110.203 22.4439 110.139 22.5032C110.076 22.5625 110.001 22.6081 109.919 22.6372C109.837 22.6663 109.751 22.6783 109.664 22.6724C109.118 22.5574 108.687 22.2414 109.118 21.5661C109.102 21.4905 109.092 21.4135 109.089 21.3362Z" fill="#E2E2E2"/>
<path d="M108.472 24.612L108.184 24.2959C107.722 24.1716 107.291 23.9513 106.92 23.6494L106.647 23.4195C107.035 22.8879 107.509 22.7011 108.084 23.1178C108.658 23.5344 109.089 23.9367 108.472 24.612Z" fill="#7C7C7C"/>
<path d="M105.339 21.25C105.742 21.3793 106.058 21.5805 106 22.0689C105.995 22.1533 105.973 22.2358 105.935 22.3114C105.897 22.3871 105.844 22.4543 105.78 22.5093C105.716 22.5642 105.641 22.6057 105.56 22.6312C105.48 22.6568 105.395 22.6659 105.311 22.658C105.227 22.666 105.142 22.6564 105.062 22.6297C104.982 22.603 104.909 22.5598 104.846 22.5029C104.784 22.4461 104.734 22.3768 104.701 22.2996C104.667 22.2224 104.649 22.1389 104.65 22.0546C104.635 21.6236 104.923 21.3649 105.339 21.25Z" fill="#F4F4F4"/>
<path d="M108.098 19.0805C107.954 19.5546 108.5 20.2874 107.581 20.5173C107.497 20.5383 107.409 20.5418 107.324 20.5276C107.238 20.5133 107.156 20.4816 107.084 20.4345C107.011 20.3873 106.949 20.3257 106.901 20.2534C106.853 20.1811 106.82 20.0998 106.805 20.0144C106.805 19.0374 107.538 19.2242 108.127 19.1667L108.098 19.0805Z" fill="#F5F5F5"/>
<path d="M106.92 23.6494C107.538 23.477 108.069 23.477 108.184 24.2959C107.954 24.6838 107.753 25.1579 107.178 24.7988C107.074 24.7525 106.981 24.6823 106.908 24.5938C106.836 24.5053 106.785 24.401 106.759 24.2892C106.734 24.1775 106.736 24.0614 106.764 23.9502C106.791 23.8391 106.845 23.7361 106.92 23.6494Z" fill="#F4F4F4"/>
</svg>
