<svg width="12" height="12" viewBox="0 0 12 12" fill="none" xmlns="http://www.w3.org/2000/svg">
<path fill-rule="evenodd" clip-rule="evenodd" d="M3.86031 3.48323L0.526435 4.0864L0.478786 4.09689C0.0119196 4.21843 -0.163831 4.83172 0.179939 5.20162L2.53801 7.73908L2.05651 11.2415L2.05143 11.2905C2.01654 11.7932 2.52056 12.1586 2.96365 11.9307L6 10.3691L9.03635 11.9307L9.0794 11.9509C9.5258 12.141 10.0138 11.7526 9.94349 11.2415L9.46167 7.73908L11.8201 5.20162L11.8527 5.16384C12.1621 4.77853 11.9596 4.17434 11.4736 4.0864L8.13938 3.48323L6.56064 0.353567C6.3228 -0.117856 5.6772 -0.117856 5.43936 0.353567L3.86031 3.48323Z" fill="#333333"/>
</svg>
