<svg width="28" height="26" viewBox="0 0 28 26" fill="none" xmlns="http://www.w3.org/2000/svg">
<path fill-rule="evenodd" clip-rule="evenodd" d="M19.6037 0.00357387C17.5457 -0.0570264 15.542 0.654966 14.0041 1.99334C12.4663 0.654966 10.4626 -0.0570264 8.40449 0.00357387C5.96859 -0.00456386 3.65706 1.05445 2.10493 2.88969C0.770821 4.47165 -0.626283 7.33588 0.299053 12.0051C1.77735 19.4579 12.8506 25.575 13.3182 25.8268C13.7419 26.0578 14.2579 26.0578 14.6817 25.8268C15.1534 25.5708 26.2267 19.4538 27.7008 12.0051C28.6261 7.33588 27.2304 4.4785 25.8963 2.88969C24.346 1.056 22.0373 -0.00290152 19.6037 0.00357387ZM24.6888 11.5344C23.6721 16.6667 16.2847 21.4415 14.0083 22.805C11.732 21.4415 4.34462 16.6681 3.32789 11.5344C2.62778 8.00441 3.58582 5.95389 4.51385 4.85459C5.50847 3.68144 6.98799 3.00503 8.54666 3.01086C10.2176 2.88836 11.8316 3.63242 12.7978 4.97066C13.0348 5.39867 13.4914 5.66658 13.9892 5.66973H14.0056C14.5001 5.66638 14.9551 5.40484 15.1984 4.984C16.1635 3.63515 17.7857 2.8849 19.4646 3.01086C21.0251 3.00343 22.507 3.68 23.5028 4.85459C24.4281 5.95389 25.3862 8.00441 24.6861 11.5344H24.6888Z" fill="black"/>
</svg>
