<svg width="16" height="15" viewBox="0 0 16 15" fill="none" xmlns="http://www.w3.org/2000/svg">
<path fill-rule="evenodd" clip-rule="evenodd" d="M16 7.5C16 8.06484 15.6022 8.52759 15.0977 8.56849L15.0249 8.57143L3.26569 8.57118L7.16096 13.2012C7.52652 13.6358 7.50231 14.3136 7.10689 14.7153C6.73228 15.0959 6.15889 15.092 5.78875 14.7211L5.72901 14.6559L0.213578 8.10019C-0.0711928 7.7617 -0.0711928 7.2383 0.213578 6.89981L5.72901 0.344112C6.09457 -0.0903933 6.71147 -0.116996 7.10689 0.284692C7.4815 0.665239 7.52294 1.29366 7.21545 1.7282L7.16096 1.79875L3.26609 6.42838L15.0249 6.42857C15.5635 6.42857 16 6.90827 16 7.5Z" fill="#333333"/>
</svg>
