<svg width="16" height="21" viewBox="0 0 16 21" fill="none" xmlns="http://www.w3.org/2000/svg">
<g clip-path="url(#clip0_235_631)">
<path d="M7.98859 0C5.86988 0 3.83795 0.84654 2.3398 2.35339C0.841652 3.86024 0 5.90397 0 8.03498C0 12.2074 6.55064 19.416 7.29815 20.2252L7.98859 21L8.69044 20.2367C9.44936 19.4274 15.9772 12.2189 15.9772 8.03498C15.9772 5.90397 15.1355 3.86024 13.6374 2.35339C12.1392 0.84654 10.1073 0 7.98859 0ZM7.98859 18.1418C5.82026 15.6453 1.91726 10.6291 1.91726 8.03498C1.91726 6.41237 2.55812 4.85622 3.69885 3.70886C4.83959 2.5615 6.38676 1.91692 8 1.91692C9.61324 1.91692 11.1604 2.5615 12.3011 3.70886C13.4419 4.85622 14.0827 6.41237 14.0827 8.03498C14.0827 10.6291 10.1797 15.6453 7.98859 18.1418Z" fill="black"/>
<path d="M7.98868 3.93713C7.24721 3.93713 6.52239 4.15828 5.90588 4.57261C5.28938 4.98694 4.80887 5.57584 4.52512 6.26485C4.24137 6.95386 4.16713 7.71202 4.31178 8.44346C4.45644 9.17491 4.81349 9.84678 5.33778 10.3741C5.86208 10.9015 6.53008 11.2606 7.2573 11.4061C7.98452 11.5516 8.7383 11.4769 9.42333 11.1915C10.1084 10.9061 10.6939 10.4228 11.1058 9.80273C11.5177 9.18264 11.7376 8.45361 11.7376 7.70784C11.7361 6.70825 11.3406 5.75004 10.6379 5.04322C9.93517 4.33641 8.98249 3.93865 7.98868 3.93713ZM7.98868 9.55014C7.62641 9.55014 7.27227 9.44209 6.97106 9.23966C6.66984 9.03722 6.43507 8.74949 6.29644 8.41286C6.1578 8.07622 6.12153 7.70579 6.1922 7.34842C6.26288 6.99105 6.43733 6.66278 6.69349 6.40513C6.94966 6.14748 7.27603 5.97201 7.63134 5.90093C7.98665 5.82984 8.35493 5.86633 8.68963 6.00577C9.02432 6.14521 9.31039 6.38134 9.51166 6.68431C9.71292 6.98727 9.82035 7.34346 9.82035 7.70784C9.82035 8.19645 9.62737 8.66504 9.28386 9.01054C8.94036 9.35604 8.47447 9.55014 7.98868 9.55014Z" fill="black"/>
</g>
<defs>
<clipPath id="clip0_235_631">
<rect width="16" height="21" fill="white"/>
</clipPath>
</defs>
</svg>
