<svg width="14" height="14" viewBox="0 0 14 14" fill="none" xmlns="http://www.w3.org/2000/svg">
<path fill-rule="evenodd" clip-rule="evenodd" d="M2.38664 0.409482L6.99962 5.02276L11.6134 0.409482C12.1593 -0.136494 13.0445 -0.136494 13.5905 0.409482C14.1365 0.955459 14.1365 1.84066 13.5905 2.38664L8.97694 6.99962L13.5905 11.6134C14.1365 12.1593 14.1365 13.0445 13.5905 13.5905C13.0445 14.1365 12.1593 14.1365 11.6134 13.5905L6.99962 8.97694L2.38664 13.5905C1.84066 14.1365 0.955459 14.1365 0.409482 13.5905C-0.136494 13.0445 -0.136494 12.1593 0.409482 11.6134L5.02276 6.99962L0.409482 2.38664C-0.136494 1.84066 -0.136494 0.955459 0.409482 0.409482C0.955459 -0.136494 1.84066 -0.136494 2.38664 0.409482Z" fill="#333333"/>
</svg>
