<svg width="28" height="24" viewBox="0 0 28 24" fill="none" xmlns="http://www.w3.org/2000/svg">
<path fill-rule="evenodd" clip-rule="evenodd" d="M0 12C0 11.0963 0.696085 10.3559 1.579 10.2904L1.70635 10.2857L22.285 10.2861L15.4683 2.87801C14.8286 2.1828 14.871 1.09821 15.5629 0.455507C16.2185 -0.153368 17.2219 -0.147212 17.8697 0.446238L17.9742 0.550579L27.6262 11.0397C28.1246 11.5813 28.1246 12.4187 27.6262 12.9603L17.9742 23.4494C17.3345 24.1446 16.2549 24.1872 15.5629 23.5445C14.9074 22.9356 14.8348 21.9301 15.373 21.2349L15.4683 21.122L22.2843 13.7146L1.70635 13.7143C0.763957 13.7143 0 12.9468 0 12Z" fill="white"/>
</svg>
