<svg width="8" height="14" viewBox="0 0 8 14" fill="none" xmlns="http://www.w3.org/2000/svg">
<path fill-rule="evenodd" clip-rule="evenodd" d="M4 0C4.35145 0 4.63939 0.285557 4.66484 0.647758L4.66667 0.7L4.66711 1.42782C5.17678 1.47972 5.63719 1.60422 6.04835 1.80133C6.60645 2.06888 7.04495 2.4392 7.36387 2.91229C7.66152 3.35384 7.8247 3.85636 7.85341 4.41985L7.85751 4.54153H6.04071L6.02919 4.45005C5.96596 4.02956 5.77048 3.69859 5.44275 3.45714C5.0916 3.19845 4.63613 3.0691 4.07634 3.0691C3.68278 3.0691 3.34521 3.13112 3.06361 3.25515C2.78202 3.37918 2.56658 3.54751 2.4173 3.76013C2.26802 3.97276 2.19169 4.2155 2.1883 4.48837C2.1883 4.71517 2.23834 4.91185 2.33842 5.07841C2.43851 5.24496 2.57506 5.38583 2.74809 5.501C2.92112 5.61617 3.11281 5.71274 3.32316 5.7907C3.48092 5.84917 3.63963 5.90066 3.7993 5.94518L5.13196 6.29317C5.45592 6.38226 5.76986 6.49472 6.07379 6.63056C6.43851 6.79358 6.7659 6.99911 7.05598 7.24718C7.34606 7.49524 7.57591 7.79468 7.74555 8.14551C7.91518 8.49635 8 8.90742 8 9.37874C8 10.0166 7.84394 10.5774 7.53181 11.0611C7.21968 11.5449 6.7693 11.9223 6.18066 12.1934C5.74386 12.3945 5.23934 12.5211 4.66709 12.5729L4.66667 13.3C4.66667 13.6866 4.36819 14 4 14C3.64855 14 3.36061 13.7144 3.33516 13.3522L3.33333 13.3L3.33313 12.5633C2.81557 12.5077 2.34999 12.3888 1.93639 12.2066C1.34097 11.9444 0.876166 11.5617 0.541985 11.0585C0.22869 10.5867 0.050324 10.0184 0.00688812 9.35353L0 9.21927H1.85751L1.86701 9.3211C1.90571 9.65527 2.0145 9.93672 2.19338 10.1654C2.39016 10.4171 2.64716 10.6049 2.96438 10.7289C3.28159 10.8529 3.63698 10.915 4.03053 10.915C4.44105 10.915 4.80153 10.8503 5.11196 10.7209C5.42239 10.5916 5.66582 10.4109 5.84224 10.1787C6.01866 9.94662 6.10857 9.67464 6.11196 9.36279C6.10857 9.07929 6.02884 8.84452 5.87277 8.65847C5.71671 8.47243 5.49873 8.3165 5.21883 8.1907C4.97892 8.08287 4.70473 7.9848 4.39627 7.89649L4.23919 7.85316L3.05344 7.53422L2.90384 7.49233C2.11598 7.26229 1.48815 6.92631 1.02036 6.48439C0.523325 6.01484 0.274809 5.39025 0.274809 4.61063C0.274809 3.96921 0.4419 3.40753 0.776081 2.92558C1.11026 2.44363 1.56573 2.06888 2.14249 1.80133C2.50867 1.63146 2.90561 1.51552 3.33333 1.4535L3.33333 0.7C3.33333 0.313401 3.63181 0 4 0Z" fill="white"/>
</svg>
