<svg width="8" height="431" viewBox="0 0 8 431" fill="none" xmlns="http://www.w3.org/2000/svg">
<path fill-rule="evenodd" clip-rule="evenodd" d="M0.242857 1.62378C-0.109907 1.22106 -0.0741602 0.604408 0.322699 0.24644C0.702303 -0.0959645 1.2748 -0.0776633 1.63259 0.277012L1.68001 0.32746L7.70092 7.20093C8.09969 7.65616 8.09969 8.34384 7.70092 8.79907L1.68001 15.6725C1.32725 16.0753 0.719557 16.1115 0.322699 15.7536C-0.0569055 15.4112 -0.106116 14.8321 0.199045 14.4299L0.242857 14.3762L5.59484 8.26636C5.72776 8.11461 5.72776 7.88539 5.59484 7.73364L0.242857 1.62378Z" fill="#333333"/>
<path fill-rule="evenodd" clip-rule="evenodd" d="M0.242857 53.6238C-0.109907 53.2211 -0.0741602 52.6044 0.322699 52.2464C0.702303 51.904 1.2748 51.9223 1.63259 52.277L1.68001 52.3275L7.70092 59.2009C8.09969 59.6562 8.09969 60.3438 7.70092 60.7991L1.68001 67.6725C1.32725 68.0753 0.719557 68.1115 0.322699 67.7536C-0.0569055 67.4112 -0.106116 66.8321 0.199045 66.4299L0.242857 66.3762L5.59484 60.2664C5.72776 60.1146 5.72776 59.8854 5.59484 59.7336L0.242857 53.6238Z" fill="#333333"/>
<path fill-rule="evenodd" clip-rule="evenodd" d="M0.242857 105.624C-0.109907 105.221 -0.0741602 104.604 0.322699 104.246C0.702303 103.904 1.2748 103.922 1.63259 104.277L1.68001 104.327L7.70092 111.201C8.09969 111.656 8.09969 112.344 7.70092 112.799L1.68001 119.673C1.32725 120.075 0.719557 120.112 0.322699 119.754C-0.0569055 119.411 -0.106116 118.832 0.199045 118.43L0.242857 118.376L5.59484 112.266C5.72776 112.115 5.72776 111.885 5.59484 111.734L0.242857 105.624Z" fill="#333333"/>
<path fill-rule="evenodd" clip-rule="evenodd" d="M0.242857 157.624C-0.109907 157.221 -0.0741602 156.604 0.322699 156.246C0.702303 155.904 1.2748 155.922 1.63259 156.277L1.68001 156.327L7.70092 163.201C8.09969 163.656 8.09969 164.344 7.70092 164.799L1.68001 171.673C1.32725 172.075 0.719557 172.112 0.322699 171.754C-0.0569055 171.411 -0.106116 170.832 0.199045 170.43L0.242857 170.376L5.59484 164.266C5.72776 164.115 5.72776 163.885 5.59484 163.734L0.242857 157.624Z" fill="#333333"/>
<path fill-rule="evenodd" clip-rule="evenodd" d="M0.242857 208.624C-0.109907 208.221 -0.0741602 207.604 0.322699 207.246C0.702303 206.904 1.2748 206.922 1.63259 207.277L1.68001 207.327L7.70092 214.201C8.09969 214.656 8.09969 215.344 7.70092 215.799L1.68001 222.673C1.32725 223.075 0.719557 223.112 0.322699 222.754C-0.0569055 222.411 -0.106116 221.832 0.199045 221.43L0.242857 221.376L5.59484 215.266C5.72776 215.115 5.72776 214.885 5.59484 214.734L0.242857 208.624Z" fill="#333333"/>
<path fill-rule="evenodd" clip-rule="evenodd" d="M0.242857 260.624C-0.109907 260.221 -0.0741602 259.604 0.322699 259.246C0.702303 258.904 1.2748 258.922 1.63259 259.277L1.68001 259.327L7.70092 266.201C8.09969 266.656 8.09969 267.344 7.70092 267.799L1.68001 274.673C1.32725 275.075 0.719557 275.112 0.322699 274.754C-0.0569055 274.411 -0.106116 273.832 0.199045 273.43L0.242857 273.376L5.59484 267.266C5.72776 267.115 5.72776 266.885 5.59484 266.734L0.242857 260.624Z" fill="#333333"/>
<path fill-rule="evenodd" clip-rule="evenodd" d="M0.242857 312.624C-0.109907 312.221 -0.0741602 311.604 0.322699 311.246C0.702303 310.904 1.2748 310.922 1.63259 311.277L1.68001 311.327L7.70092 318.201C8.09969 318.656 8.09969 319.344 7.70092 319.799L1.68001 326.673C1.32725 327.075 0.719557 327.112 0.322699 326.754C-0.0569055 326.411 -0.106116 325.832 0.199045 325.43L0.242857 325.376L5.59484 319.266C5.72776 319.115 5.72776 318.885 5.59484 318.734L0.242857 312.624Z" fill="#333333"/>
<path fill-rule="evenodd" clip-rule="evenodd" d="M0.242857 364.624C-0.109907 364.221 -0.0741602 363.604 0.322699 363.246C0.702303 362.904 1.2748 362.922 1.63259 363.277L1.68001 363.327L7.70092 370.201C8.09969 370.656 8.09969 371.344 7.70092 371.799L1.68001 378.673C1.32725 379.075 0.719557 379.112 0.322699 378.754C-0.0569055 378.411 -0.106116 377.832 0.199045 377.43L0.242857 377.376L5.59484 371.266C5.72776 371.115 5.72776 370.885 5.59484 370.734L0.242857 364.624Z" fill="#333333"/>
<path fill-rule="evenodd" clip-rule="evenodd" d="M0.242857 416.624C-0.109907 416.221 -0.0741602 415.604 0.322699 415.246C0.702303 414.904 1.2748 414.922 1.63259 415.277L1.68001 415.327L7.70092 422.201C8.09969 422.656 8.09969 423.344 7.70092 423.799L1.68001 430.673C1.32725 431.075 0.719557 431.112 0.322699 430.754C-0.0569055 430.411 -0.106116 429.832 0.199045 429.43L0.242857 429.376L5.59484 423.266C5.72776 423.115 5.72776 422.885 5.59484 422.734L0.242857 416.624Z" fill="#333333"/>
</svg>
