<svg width="37" height="37" viewBox="0 0 37 37" fill="none" xmlns="http://www.w3.org/2000/svg">
<path d="M18.5001 3.30383C23.4398 3.30383 24.0249 3.32253 25.9757 3.41075C27.7794 3.49227 28.759 3.79098 29.4109 4.04209C30.2744 4.37473 30.8907 4.77207 31.538 5.41367C32.1854 6.05535 32.5863 6.66617 32.9219 7.52206C33.1753 8.16819 33.4766 9.13908 33.5589 10.9268C33.6479 12.8603 33.6668 13.4403 33.6668 18.3362C33.6668 23.2323 33.6479 23.8122 33.5589 25.7457C33.4766 27.5335 33.1753 28.5044 32.9219 29.1505C32.5863 30.0064 32.1854 30.6172 31.5381 31.2588C30.8907 31.9005 30.2744 32.2978 29.4109 32.6305C28.759 32.8816 27.7794 33.1803 25.9757 33.2618C24.0252 33.35 23.4401 33.3687 18.5001 33.3687C13.56 33.3687 12.975 33.35 11.0244 33.2618C9.22071 33.1803 8.24114 32.8816 7.58925 32.6305C6.72572 32.2978 6.10944 31.9005 5.4621 31.2588C4.81476 30.6172 4.4138 30.0064 4.0782 29.1505C3.82485 28.5044 3.52346 27.5335 3.44122 25.7457C3.35221 23.8122 3.33334 23.2323 3.33334 18.3362C3.33334 13.4403 3.35221 12.8603 3.44122 10.9268C3.52346 9.13908 3.82485 8.16819 4.0782 7.52206C4.4138 6.66617 4.81469 6.05535 5.4621 5.41375C6.10944 4.77207 6.72572 4.37473 7.58925 4.04209C8.24114 3.79098 9.22071 3.49227 11.0244 3.41075C12.9752 3.32253 13.5603 3.30383 18.5001 3.30383ZM18.5001 0C13.4757 0 12.8457 0.0211079 10.8725 0.110344C8.90339 0.199361 7.55856 0.509356 6.38182 0.962594C5.16527 1.43119 4.13357 2.05817 3.10502 3.07754C2.07655 4.09698 1.44397 5.11955 0.971266 6.32532C0.513906 7.49164 0.201141 8.82457 0.111329 10.7763C0.0212965 12.732 0 13.3564 0 18.3362C0 23.3161 0.0212965 23.9405 0.111329 25.8963C0.201141 27.848 0.513906 29.1809 0.971266 30.3472C1.44397 31.553 2.07655 32.5756 3.10502 33.595C4.13357 34.6144 5.16527 35.2414 6.38182 35.7099C7.55856 36.1632 8.90339 36.4732 10.8725 36.5622C12.8457 36.6514 13.4757 36.6726 18.5001 36.6726C23.5244 36.6726 24.1544 36.6514 26.1276 36.5622C28.0967 36.4732 29.4416 36.1632 30.6183 35.7099C31.8348 35.2414 32.8665 34.6144 33.8951 33.595C34.9236 32.5756 35.5561 31.553 36.0289 30.3472C36.4862 29.1809 36.799 27.848 36.8888 25.8963C36.9788 23.9405 37.0001 23.3161 37.0001 18.3362C37.0001 13.3564 36.9788 12.732 36.8888 10.7763C36.799 8.82457 36.4862 7.49164 36.0289 6.32532C35.5561 5.11955 34.9236 4.09698 33.8951 3.07754C32.8665 2.05817 31.8348 1.43119 30.6183 0.962594C29.4416 0.509356 28.0967 0.199361 26.1276 0.110344C24.1544 0.0211079 23.5244 0 18.5001 0Z" fill="white"/>
<path d="M18.5087 8.92886C13.2619 8.92886 9.00865 13.1445 9.00865 18.3447C9.00865 23.5451 13.2619 27.7607 18.5087 27.7607C23.7554 27.7607 28.0087 23.5451 28.0087 18.3447C28.0087 13.1445 23.7554 8.92886 18.5087 8.92886ZM18.5087 24.4569C15.1029 24.4569 12.342 21.7204 12.342 18.3447C12.342 14.9692 15.1029 12.2327 18.5087 12.2327C21.9145 12.2327 24.6754 14.9692 24.6754 18.3447C24.6754 21.7204 21.9145 24.4569 18.5087 24.4569Z" fill="white"/>
<path d="M30.6035 8.55114C30.6035 9.7663 29.6096 10.7515 28.3835 10.7515C27.1574 10.7515 26.1635 9.7663 26.1635 8.55114C26.1635 7.3359 27.1574 6.35074 28.3835 6.35074C29.6096 6.35074 30.6035 7.3359 30.6035 8.55114Z" fill="white"/>
</svg>
