<svg width="15" height="25" viewBox="0 0 15 25" fill="none" xmlns="http://www.w3.org/2000/svg">
<g clip-path="url(#clip0_235_640)">
<path d="M11.0553 0H11.1609C11.2112 0.155581 11.0855 0.281886 11.0871 0.429938C11.0088 0.567523 10.9547 0.717459 10.927 0.87326C10.9027 0.898293 10.8839 0.928106 10.8718 0.960797C10.8597 0.993489 10.8545 1.02834 10.8566 1.06314C10.8069 1.12934 10.7796 1.20961 10.7787 1.29232C10.7036 1.41512 10.6519 1.55066 10.6261 1.69215C10.5489 1.84842 10.4944 2.01488 10.4643 2.1865C10.4448 2.20161 10.4302 2.22213 10.4223 2.24548C10.4144 2.26884 10.4136 2.294 10.4199 2.31782C10.3595 2.40724 10.3218 2.51003 10.3101 2.61727L10.1743 3.01124L10.0209 3.44285C9.9723 3.4738 9.9723 3.5265 9.97314 3.57167C9.91217 3.66812 9.87378 3.77705 9.86081 3.89036C9.80239 3.9573 9.77234 4.04428 9.77699 4.13293C9.75466 4.15883 9.73798 4.18909 9.72803 4.22179C9.71807 4.25448 9.71505 4.28888 9.71915 4.3228C9.64549 4.42934 9.6002 4.55283 9.58755 4.68164C9.45599 4.96123 9.35265 5.2532 9.27909 5.55323C9.19563 5.69843 9.13885 5.85735 9.11144 6.02248C8.97027 6.32246 8.86126 6.63648 8.78621 6.95931C8.73421 7.03011 8.70498 7.11499 8.70239 7.20272C8.59397 7.40105 8.51598 7.6145 8.47104 7.83592C8.38786 7.94384 8.34648 8.07808 8.35453 8.214C8.21233 8.49185 8.10452 8.78594 8.03349 9.08977C7.96195 9.20326 7.91803 9.33188 7.90524 9.46534C7.82142 9.68783 7.72754 9.9095 7.64539 10.1345C7.51714 10.4816 7.51966 10.4825 7.90775 10.4641H8.72167C8.86693 10.49 9.01564 10.49 9.1609 10.4641H9.66383C9.78807 10.4887 9.91596 10.4887 10.0402 10.4641H10.4777C10.623 10.4896 10.7717 10.4896 10.917 10.4641H11.3537C11.4993 10.4896 11.6482 10.4896 11.7938 10.4641H13.0444C13.1896 10.49 13.3384 10.49 13.4836 10.4641H13.9212C14.0665 10.4918 14.2159 10.4918 14.3612 10.4641H14.7971L14.9891 10.4749C15.0402 10.618 14.8684 10.6631 14.8558 10.7777C14.7109 10.9087 14.5858 11.0601 14.4845 11.2269C14.2794 11.4784 14.0743 11.7293 13.8692 11.9797C13.801 12.022 13.7495 12.0864 13.7233 12.1621C13.6142 12.2426 13.5276 12.3497 13.4719 12.4732L13.4174 12.5351L13.1031 12.9149L12.352 13.8559C12.251 13.9326 12.1699 14.0325 12.1156 14.147C11.6896 14.6138 11.2905 15.1045 10.9203 15.6166C10.7946 15.722 10.687 15.8471 10.6018 15.9872L10.4073 16.2381L10.2732 16.4054L10.041 16.6906C9.95561 16.7517 9.88864 16.8351 9.8474 16.9315C9.76072 16.9899 9.69494 17.0743 9.65964 17.1724C9.53924 17.2478 9.44636 17.3598 9.39476 17.492C9.31052 17.5431 9.24611 17.6213 9.21203 17.7136L9.15084 17.7889C9.01825 17.8944 8.91063 18.0278 8.83567 18.1795L8.72586 18.3167C8.62089 18.4011 8.53371 18.5055 8.46936 18.6237C8.35648 18.7078 8.26844 18.8208 8.21454 18.9507C8.09066 19.0466 7.98841 19.1675 7.91446 19.3054C7.84675 19.3462 7.79455 19.4083 7.76609 19.4819C7.64366 19.5847 7.54281 19.7106 7.46936 19.8524C7.39779 19.8972 7.34255 19.9638 7.31178 20.0423C7.23969 20.126 7.16844 20.2096 7.09635 20.3L7.03768 20.3719L6.78621 20.6814C6.68137 20.7669 6.5957 20.8735 6.53475 20.9942C6.46853 21.0779 6.40231 21.1615 6.33525 21.2451C6.09635 21.4693 5.91614 21.7395 5.7158 21.998C5.68009 22.0108 5.64869 22.0334 5.62515 22.0631C5.6016 22.0928 5.58683 22.1285 5.58252 22.1661C5.45136 22.2722 5.34447 22.4051 5.26903 22.5559L5.21957 22.6253C5.09473 22.7332 4.98828 22.8606 4.9044 23.0025C4.83716 23.045 4.78634 23.109 4.76023 23.1841C4.68377 23.2308 4.62486 23.3013 4.59258 23.3848C4.21706 23.803 3.85579 24.2388 3.52385 24.6947C3.38051 24.7708 3.36123 24.9941 3.16174 25.0033C3.16174 24.903 3.16174 24.8018 3.16174 24.7014C3.26484 24.5717 3.19024 24.3718 3.33441 24.2581C3.40606 24.1444 3.44972 24.0154 3.46182 23.8817C3.55279 23.6924 3.61468 23.4905 3.64539 23.2828C3.72083 23.0419 3.79711 22.8018 3.87255 22.5609C3.91781 22.4153 3.96392 22.2698 4.00918 22.1243L4.03349 22.0038C4.14893 21.7645 4.23342 21.5116 4.28496 21.251C4.36049 21.1177 4.40463 20.9689 4.41404 20.816C4.50904 20.5227 4.60404 20.2291 4.69904 19.9353C4.74346 19.788 4.78873 19.6408 4.83315 19.4936L4.90273 19.2427C4.92898 19.2197 4.94858 19.1901 4.95949 19.157C4.9704 19.1239 4.97222 19.0885 4.96475 19.0545C5.03413 18.9396 5.07574 18.8101 5.0863 18.6764C5.17351 18.5266 5.22379 18.3583 5.23299 18.1854C5.25897 18.1017 5.28579 18.0181 5.31178 17.9345C5.40295 17.731 5.47126 17.5181 5.51547 17.2996L5.64288 16.9207C5.6608 16.7689 5.70445 16.6212 5.77196 16.484C5.86026 16.1918 5.94883 15.8996 6.03768 15.6074C6.11763 15.4552 6.16447 15.2879 6.17515 15.1164H0.0829434L0.0879727 15.0955L0.00415039 15.0345L0.139104 14.7919C0.14339 14.7912 0.147485 14.7896 0.151127 14.7873C0.154768 14.7849 0.157874 14.7819 0.160244 14.7782C0.162614 14.7746 0.164195 14.7705 0.164885 14.7662C0.165575 14.762 0.165359 14.7576 0.164251 14.7534C0.304439 14.6179 0.422393 14.4613 0.51379 14.2892C0.608344 14.1954 0.685281 14.0855 0.740948 13.9646C0.841219 13.8859 0.91874 13.782 0.965592 13.6635L1.15503 13.4126C1.23814 13.3466 1.30256 13.2601 1.34195 13.1616C1.40714 13.1179 1.45443 13.0523 1.47523 12.9768L1.75268 12.6054L1.84405 12.4741C1.92712 12.4105 1.99071 12.325 2.02762 12.2273C2.15084 12.0926 2.27909 11.963 2.33944 11.7815C2.34517 11.7758 2.3491 11.7686 2.35074 11.7607C2.35238 11.7528 2.35166 11.7446 2.34866 11.7372C2.52469 11.6284 2.6236 11.4569 2.71999 11.283L2.76693 11.2152C2.8803 11.1108 2.97201 10.9852 3.03684 10.8455L3.08881 10.7794C3.21812 10.6523 3.32295 10.5026 3.39812 10.3378C3.57917 10.0944 3.81723 9.8936 3.92703 9.59582L3.97062 9.53978C4.13072 9.46199 4.20365 9.30808 4.28998 9.16672C4.37317 9.09586 4.43717 9.00525 4.47607 8.90324C4.55859 8.83724 4.6222 8.75068 4.66048 8.6523C4.87448 8.42343 5.06151 8.17085 5.2179 7.89949C5.36207 7.72384 5.52636 7.56491 5.60348 7.33907C5.6339 7.33587 5.66232 7.32246 5.6841 7.30103C5.70588 7.2796 5.71971 7.25143 5.72335 7.22113C5.82356 7.12867 5.90471 7.01757 5.96224 6.89407C6.06828 6.79935 6.14064 6.67284 6.16844 6.53356C6.3495 6.50177 6.38638 6.33365 6.47188 6.21152C6.63143 6.03762 6.77193 5.84723 6.89099 5.64357L6.97481 5.52228C7.05816 5.45484 7.12376 5.36813 7.16593 5.26967C7.31445 5.11842 7.43909 4.94553 7.53558 4.75693L7.8583 4.32699C7.98719 4.19781 8.09471 4.04902 8.17682 3.88617C8.20782 3.8685 8.2347 3.84444 8.25565 3.81559C8.27661 3.78675 8.29117 3.75378 8.29837 3.71888C8.36626 3.63022 8.435 3.54239 8.50373 3.45373C8.60264 3.36916 8.68066 3.26297 8.73173 3.1434C8.89659 2.96814 9.03983 2.77382 9.15838 2.56457L9.24221 2.44914C9.32237 2.38572 9.38522 2.30316 9.42494 2.20908C9.52815 2.11579 9.61042 2.00177 9.66635 1.8745L9.74095 1.77161C9.86096 1.65297 9.96089 1.51568 10.0368 1.3651L10.1207 1.25385C10.1479 1.24295 10.1716 1.22463 10.1889 1.20096C10.2063 1.1773 10.2166 1.14925 10.2187 1.12001C10.3126 1.06815 10.3126 0.964434 10.3529 0.882461C10.3864 0.878269 10.4178 0.863397 10.4422 0.840046C10.4667 0.816696 10.483 0.786108 10.4886 0.75281C10.7027 0.521774 10.8926 0.269529 11.0553 0Z" fill="black"/>
</g>
<defs>
<clipPath id="clip0_235_640">
<rect width="15" height="25" fill="white"/>
</clipPath>
</defs>
</svg>
