<svg width="29" height="27" viewBox="0 0 29 27" fill="none" xmlns="http://www.w3.org/2000/svg">
<path fill-rule="evenodd" clip-rule="evenodd" d="M20.3038 0.0037015C18.1723 -0.059063 16.097 0.678357 14.5042 2.06453C12.9115 0.678357 10.8362 -0.059063 8.70465 0.0037015C6.18175 -0.00472685 3.78767 1.09211 2.1801 2.9929C0.79835 4.63135 -0.64865 7.59787 0.309734 12.4339C1.84083 20.1528 13.3095 26.4883 13.7938 26.7491C14.2327 26.9884 14.7671 26.9884 15.206 26.7491C15.6946 26.4841 27.1633 20.1485 28.6901 12.4339C29.6484 7.59787 28.2029 4.63844 26.8211 2.9929C25.2154 1.09371 22.8243 -0.00300514 20.3038 0.0037015ZM25.5705 11.9464C24.5175 17.262 16.8663 22.2073 14.5086 23.6194C12.1509 22.2073 4.49978 17.2634 3.44674 11.9464C2.72162 8.29028 3.71389 6.16653 4.67505 5.02796C5.70519 3.81292 7.23756 3.11235 8.85189 3.11839C10.5825 2.99151 12.2541 3.76215 13.2549 5.14818C13.5003 5.59148 13.9732 5.86896 14.4888 5.87221H14.5058C15.018 5.86875 15.4892 5.59786 15.7412 5.16199C16.7408 3.76497 18.4208 2.98793 20.1597 3.11839C21.776 3.1107 23.3108 3.81142 24.3422 5.02796C25.3006 6.16653 26.2928 8.29028 25.5677 11.9464H25.5705Z" fill="white"/>
</svg>
