<svg width="21" height="17" viewBox="0 0 21 17" fill="none" xmlns="http://www.w3.org/2000/svg">
<path d="M10.5011 0.000125016C14.3716 0.00198208 18.0898 1.54001 20.8697 4.28912C21.0337 4.44818 21.0529 4.5319 20.8697 4.69654C20.4815 5.0593 20.1152 5.4416 19.7489 5.81274C19.604 5.96622 19.5111 5.96342 19.3526 5.81274C18.0131 4.53748 16.5233 3.46314 14.7628 2.89108C9.97623 1.34794 5.65984 2.19346 1.87377 5.60903C1.43366 6.00528 1.43639 6.00807 1.00448 5.57834C0.701046 5.27138 0.411282 4.95326 0.0996486 4.65747C-0.0452334 4.52074 -0.0206308 4.44818 0.0996486 4.31982C2.31586 2.11233 5.15441 0.669869 8.21577 0.19546C8.97046 0.0621033 9.73518 -0.00326002 10.5011 0.000125016Z" fill="black"/>
<path d="M18.0431 7.53448C18.0053 7.58729 17.9642 7.63761 17.9201 7.68516C17.5265 8.10095 17.1247 8.52231 16.7337 8.93252C16.5615 9.11948 16.485 8.93252 16.3975 8.85438C15.5406 7.95284 14.4784 7.28178 13.3058 6.90103C10.0938 5.86297 7.20433 6.47688 4.6894 8.78462C4.43791 9.01344 4.3149 9.00507 4.10714 8.75951C3.79277 8.38837 3.44287 8.04793 3.10117 7.7047C2.98089 7.58471 2.93988 7.50657 3.10117 7.36147C4.75096 5.6958 6.89828 4.64006 9.20261 4.36168C12.524 3.96822 15.3888 4.98954 17.8354 7.28612C17.9147 7.35868 18.0185 7.41169 18.0431 7.53448Z" fill="black"/>
<path d="M10.7334 8.56696C12.2178 8.56696 13.6694 9.20878 14.9542 10.3696C15.0963 10.498 15.0963 10.5789 14.9542 10.7101C14.5523 11.1035 14.1614 11.5081 13.7705 11.9128C13.6612 12.0272 13.5901 12.0356 13.4561 11.9128C11.5699 10.2999 9.39943 10.2943 7.54604 11.9128C7.40389 12.0356 7.32735 12.0328 7.20433 11.9128C6.8353 11.5026 6.45259 11.1063 6.05895 10.7212C5.91133 10.5789 5.9168 10.4952 6.05895 10.3585C7.33294 9.16904 9.00741 8.52731 10.7334 8.56696Z" fill="black"/>
<path d="M12.2123 15.2976C12.2113 15.5235 12.1664 15.7468 12.0804 15.9549C11.9943 16.1629 11.8687 16.3515 11.7109 16.5097C11.5531 16.668 11.3661 16.7928 11.1608 16.8769C10.9555 16.961 10.736 17.0028 10.5148 16.9999C10.0756 16.9858 9.65876 16.7988 9.35169 16.478C9.04462 16.1572 8.87114 15.7275 8.8676 15.279C8.86407 14.8305 9.03076 14.398 9.33273 14.0721C9.63471 13.7463 10.0485 13.5525 10.4874 13.5313C10.9441 13.5371 11.3803 13.7252 11.7027 14.0554C12.0252 14.3856 12.2081 14.8315 12.2123 15.2976Z" fill="black"/>
</svg>
