<svg width="16" height="21" viewBox="0 0 16 21" fill="none" xmlns="http://www.w3.org/2000/svg">
<path d="M16 6.31237C15.9794 6.30529 15.9815 6.28711 15.9766 6.27195C15.8243 5.77704 15.3457 5.55535 14.8631 5.75703C13.9947 6.11998 13.1267 6.48414 12.2592 6.84951C12.172 6.8865 12.1321 6.87093 12.0765 6.80122C11.5623 6.15797 11.0441 5.51817 10.528 4.87654C10.2374 4.51521 9.8665 4.28908 9.39977 4.22017C9.09884 4.17591 8.79914 4.10761 8.49244 4.17025C8.40543 4.18804 8.31554 4.20299 8.23491 4.23694C7.67047 4.475 7.07374 4.61585 6.491 4.79793C5.69248 5.0467 4.89026 5.28456 4.0901 5.52827C3.65237 5.66145 3.42816 6.02136 3.51558 6.46474C3.72759 7.54105 3.94241 8.61689 4.16003 9.69226C4.19988 9.89487 4.31992 10.0737 4.49381 10.1894C4.6677 10.3052 4.88122 10.3484 5.08752 10.3096C5.29105 10.2736 5.47174 10.1598 5.59002 9.99311C5.7083 9.82646 5.75454 9.62054 5.71861 9.42045C5.60156 8.77843 5.46663 8.13943 5.33909 7.49922C5.29919 7.29713 5.26196 7.09606 5.21691 6.89579C5.20477 6.84123 5.21321 6.81839 5.26751 6.80202C5.85272 6.62601 6.43773 6.44837 7.03528 6.2673C7.00401 6.46676 6.9748 6.65834 6.94415 6.84972C6.75423 8.03596 6.56395 9.22248 6.37334 10.4093C6.30937 10.808 6.22359 11.2047 6.18575 11.6058C6.10244 12.4885 5.74555 13.3015 5.54273 14.1533C5.49357 14.3592 5.42549 14.5607 5.36995 14.7654C5.35617 14.8162 5.33416 14.8343 5.27965 14.8364C4.30711 14.8702 3.33464 14.9053 2.36223 14.9417C1.92389 14.9578 1.48555 14.9706 1.04762 14.993C0.50211 15.0209 0.128356 15.342 0.0162509 15.8668C0.0143997 15.8751 0.00555384 15.882 0 15.8894V16.1926C0.0238609 16.2128 0.0178962 16.2421 0.0236558 16.2675C0.138641 16.7665 0.594878 17.1145 1.10727 17.0951C2.80167 17.0311 4.49601 16.9673 6.19027 16.9037C6.67963 16.8853 7.06654 16.5903 7.20045 16.1293C7.3103 15.7514 7.41767 15.3727 7.52566 14.9942C7.65751 14.5316 7.78813 14.0686 7.92163 13.6063C7.93006 13.5774 7.91937 13.5212 7.98025 13.5315C8.04957 13.5432 8.11848 13.5436 8.18328 13.5879C9.13922 14.2399 10.0966 14.8899 11.0554 15.5376C11.1116 15.5754 11.1285 15.6128 11.1229 15.6775C11.0937 16.0095 11.0692 16.3417 11.0431 16.6737C10.9904 17.3447 10.9378 18.0157 10.8853 18.6867C10.8547 19.0925 10.8164 19.4981 10.7958 19.9055C10.7834 20.136 10.8494 20.3641 10.9834 20.5537C11.1175 20.7433 11.3121 20.8836 11.5364 20.9525C11.5896 20.9693 11.6435 20.9842 11.6972 21H12.0545C12.0629 20.9681 12.0936 20.9782 12.1138 20.9727C12.5899 20.8414 12.8896 20.4924 12.9298 20.0092C12.9816 19.3827 13.0279 18.7542 13.0766 18.1269C13.1509 17.1705 13.2206 16.2138 13.3029 15.2573C13.344 14.7802 13.1795 14.4174 12.7724 14.1458C11.813 13.5044 10.8615 12.8525 9.90682 12.204C9.86568 12.1761 9.82289 12.1573 9.83606 12.0878C9.8772 11.873 9.90744 11.6563 9.9422 11.4411C10.1309 10.2612 10.3199 9.08135 10.5093 7.90157C10.5321 7.7589 10.5558 7.61643 10.5799 7.46951C10.5955 7.4778 10.6004 7.47861 10.6015 7.48103C10.8277 7.76032 11.0515 8.04061 11.2784 8.31909C11.5113 8.60484 11.8749 8.69598 12.2203 8.55694C12.3184 8.51753 12.4155 8.47611 12.5132 8.43569C13.5006 8.02262 14.4884 7.60976 15.4767 7.1971C15.6993 7.10455 15.8607 6.95682 15.9498 6.73453C15.9683 6.68865 15.9648 6.6355 15.9994 6.59529L16 6.31237Z" fill="black"/>
<path d="M10.3038 0C10.2324 0.016369 10.1598 0.0309192 10.0897 0.0493091C9.71109 0.146433 9.38361 0.380065 9.17244 0.703694C8.96127 1.02732 8.8819 1.41721 8.95012 1.79574C9.08711 2.57054 9.81981 3.11799 10.6253 3.04867C11.3749 2.9832 11.9829 2.37007 12.029 1.63407C12.0763 0.872811 11.5629 0.197843 10.8172 0.0375881C10.7761 0.0288983 10.7282 0.0357693 10.6938 0.000808345L10.3038 0Z" fill="black"/>
</svg>
