<svg width="29" height="24" viewBox="0 0 29 24" fill="none" xmlns="http://www.w3.org/2000/svg">
<path fill-rule="evenodd" clip-rule="evenodd" d="M29 12C29 11.0963 28.2791 10.3559 27.3646 10.2904L27.2327 10.2857L5.91907 10.2861L12.9792 2.87801C13.6418 2.1828 13.5979 1.09821 12.8812 0.455507C12.2023 -0.153368 11.163 -0.147212 10.4921 0.446238L10.3838 0.550579L0.387112 11.0397C-0.129036 11.5813 -0.129036 12.4187 0.387112 12.9603L10.3838 23.4494C11.0464 24.1446 12.1645 24.1872 12.8812 23.5445C13.5602 22.9356 13.6353 21.9301 13.078 21.2349L12.9792 21.122L5.9198 13.7146L27.2327 13.7143C28.2088 13.7143 29 12.9468 29 12Z" fill="black"/>
</svg>
