<svg width="37" height="30" viewBox="0 0 37 30" fill="none" xmlns="http://www.w3.org/2000/svg">
<path fill-rule="evenodd" clip-rule="evenodd" d="M36.9149 3.55098C35.5578 4.15389 34.0973 4.55992 32.5654 4.74325C34.1293 3.80567 35.3302 2.32179 35.8949 0.553683C34.4332 1.42236 32.8103 2.0511 31.0865 2.39193C29.7047 0.920351 27.7348 0 25.5582 0C21.376 0 17.985 3.39102 17.985 7.57321C17.985 8.16627 18.0527 8.74456 18.1819 9.29948C11.887 8.98449 6.30711 5.96875 2.57157 1.38668C1.91945 2.50513 1.54663 3.80569 1.54663 5.19359C1.54663 7.82053 2.88163 10.1386 4.91551 11.497C3.67279 11.4576 2.50635 11.1168 1.48388 10.5496V10.6443C1.48388 14.3147 4.09605 17.3747 7.55844 18.0724C6.92355 18.2446 6.2542 18.3381 5.56394 18.3381C5.07546 18.3381 4.60052 18.2901 4.13789 18.2015C5.1013 21.2099 7.89927 23.4001 11.2128 23.4616C8.62152 25.4918 5.356 26.7037 1.80748 26.7037C1.19473 26.7037 0.59183 26.668 0 26.5967C3.35165 28.745 7.33205 30 11.609 30C25.5385 30 33.156 18.4599 33.156 8.45295C33.156 8.12443 33.1499 7.79715 33.1339 7.47355C34.6153 6.40309 35.8998 5.06931 36.9149 3.55098Z" fill="white"/>
</svg>
