<svg width="30" height="30" viewBox="0 0 30 30" fill="none" xmlns="http://www.w3.org/2000/svg">
<path fill-rule="evenodd" clip-rule="evenodd" d="M25.5 4.3125C22.6875 1.5 18.9375 0 15 0C6.75 0 0 6.75 0 15C0 17.625 0.750011 20.25 2.06251 22.5L0 30L7.87502 27.9375C10.125 29.0625 12.5625 29.8125 15 29.8125C23.25 29.8125 30 23.0625 30 14.8125C30 10.875 28.3125 7.125 25.5 4.3125ZM15 27.375C12.75 27.375 10.5 26.8125 8.62501 25.6875L8.24999 25.5L3.56249 26.8125L4.87501 22.3125L4.49999 21.75C3.18749 19.6875 2.62499 17.4375 2.62499 15.1875C2.62499 8.4375 8.25 2.8125 15 2.8125C18.375 2.8125 21.375 4.125 23.8125 6.375C26.25 8.8125 27.375 11.8125 27.375 15.1875C27.375 21.75 21.9375 27.375 15 27.375ZM21.75 18C21.375 17.8125 19.5 16.875 19.125 16.875C18.75 16.6875 18.5625 16.6875 18.375 17.0625C18.1875 17.4375 17.4375 18.1875 17.25 18.5625C17.0625 18.75 16.875 18.75 16.5 18.75C16.125 18.5625 15 18.1875 13.5 16.875C12.375 15.9375 11.625 14.625 11.4375 14.25C11.25 13.875 11.4375 13.6875 11.625 13.5C11.8125 13.3125 12 13.125 12.1875 12.9375C12.375 12.75 12.375 12.5625 12.5625 12.375C12.75 12.1875 12.5625 12 12.5625 11.8125C12.5625 11.625 11.8125 9.75 11.4375 9C11.25 8.4375 10.875 8.4375 10.6875 8.4375C10.5 8.4375 10.3125 8.4375 9.93748 8.4375C9.74998 8.4375 9.37498 8.4375 8.99998 8.8125C8.62498 9.1875 7.68751 10.125 7.68751 12C7.68751 13.875 8.99999 15.5625 9.18749 15.9375C9.37499 16.125 11.8125 20.0625 15.5625 21.5625C18.75 22.875 19.3125 22.5 20.0625 22.5C20.8125 22.5 22.3125 21.5625 22.5 20.8125C22.875 19.875 22.875 19.125 22.6875 19.125C22.5 18.1875 22.125 18.1875 21.75 18Z" fill="white"/>
</svg>
