<svg width="26" height="24" viewBox="0 0 26 24" fill="none" xmlns="http://www.w3.org/2000/svg">
<path d="M7.56361 19.7867C7.56361 20.8693 7.56361 21.9494 7.56361 23.0445C7.56361 23.7461 7.00533 24.1521 6.36657 23.9466C6.17393 23.8832 6.0087 23.7564 5.89808 23.5869C5.78746 23.4175 5.73805 23.2156 5.75799 23.0144C5.75799 21.4206 5.75799 19.8277 5.75799 18.2355C5.75799 17.6842 5.75799 17.1329 5.75799 16.5816C5.75799 16.3661 5.68757 16.3135 5.48387 16.311C5.28018 16.3085 5.21228 16.3761 5.21228 16.5841C5.21228 18.6991 5.21228 20.8142 5.21228 22.9267C5.21228 23.478 5.02115 23.7962 4.6213 23.9291C3.94985 24.1646 3.3463 23.7236 3.34127 22.9793C3.34127 21.5359 3.34127 20.095 3.34127 18.6515C3.34127 17.9699 3.34127 17.2883 3.34127 16.6067C3.34127 16.3786 3.29097 16.2934 3.04452 16.301C2.45103 16.3185 1.85754 16.301 1.26656 16.301C0.999996 16.301 0.944671 16.2558 1.01508 15.9877C1.81982 13.1994 2.61533 10.4086 3.40162 7.61534C3.4318 7.51009 3.60784 7.35221 3.40162 7.27453C3.19541 7.19685 3.08476 7.30711 3.02189 7.52513C2.56923 9.1139 2.10148 10.6977 1.63875 12.2864C1.59432 12.5349 1.45902 12.7581 1.25902 12.9129C1.13636 13.0029 0.989736 13.0547 0.837592 13.0619C0.685448 13.069 0.534585 13.0311 0.40399 12.953C0.26748 12.8845 0.155828 12.7752 0.0846016 12.6405C0.0133756 12.5057 -0.013874 12.3522 0.00665228 12.2012C0.0346128 11.9528 0.0868327 11.7078 0.16257 11.4695C0.665528 9.78382 1.17855 8.09815 1.70162 6.41249C1.85108 5.85528 2.18439 5.36441 2.64787 5.01893C3.11135 4.67345 3.67803 4.49347 4.25665 4.50796C5.07983 4.50796 5.90385 4.50796 6.7287 4.50796C7.29622 4.50906 7.84843 4.69146 8.30424 5.02839C8.76004 5.36532 9.09541 5.83902 9.2611 6.37991C9.81184 8.16915 10.35 9.96091 10.8882 11.7552C11.0567 12.3165 10.946 12.7149 10.5889 12.938C10.5036 12.9972 10.407 13.0382 10.3051 13.0584C10.2031 13.0786 10.0981 13.0776 9.9966 13.0555C9.89508 13.0334 9.79923 12.9906 9.71507 12.9299C9.63091 12.8691 9.56026 12.7917 9.50755 12.7024C9.41768 12.5578 9.34988 12.4007 9.30636 12.2363C8.85873 10.6977 8.41026 9.15984 7.96095 7.62286C7.94083 7.5577 7.92071 7.49004 7.89808 7.42238C7.82515 7.20186 7.63402 7.25198 7.4932 7.28205C7.35237 7.31212 7.44038 7.46498 7.46553 7.54768C8.27362 10.3176 9.08422 13.0842 9.89734 15.8474C10.0281 16.2984 10.0306 16.2959 9.57293 16.2959C9.01968 16.2959 8.46642 16.316 7.91568 16.2959C7.60888 16.2809 7.55607 16.3862 7.55858 16.6643C7.57618 17.7068 7.55858 18.7493 7.55858 19.7917L7.56361 19.7867Z" fill="black"/>
<path d="M19.0336 15.3462C19.0336 12.862 19.0336 10.3777 19.0336 7.8935C19.0336 7.78825 19.1317 7.61283 18.9104 7.58777C18.7343 7.56773 18.6111 7.58777 18.6136 7.82333C18.6262 8.92595 18.6136 10.0286 18.6136 11.1312C18.6136 11.7827 18.6136 12.4343 18.6136 13.0833C18.627 13.2537 18.5854 13.4238 18.4949 13.569C18.4045 13.7141 18.2698 13.8267 18.1107 13.8902C17.9801 13.9521 17.8357 13.9788 17.6915 13.9679C17.5474 13.957 17.4087 13.9088 17.289 13.828C17.1694 13.7473 17.0729 13.6368 17.0093 13.5075C16.9457 13.3782 16.917 13.2346 16.9262 13.0908C16.9262 12.5395 16.9262 11.9882 16.9262 11.4369C16.9262 10.0135 16.9262 8.59349 16.9262 7.1768C16.9006 6.69277 17.0144 6.21153 17.2541 5.78977C17.4938 5.368 17.8494 5.02326 18.2791 4.79615C18.5853 4.62123 18.9322 4.52962 19.2851 4.53052C20.6808 4.53052 22.079 4.53052 23.4772 4.53052C24.1138 4.53018 24.7263 4.77284 25.1889 5.20863C25.6515 5.64441 25.929 6.24022 25.9644 6.87358C26.0197 8.39469 25.992 9.9183 25.9996 11.4419C25.9996 11.9832 25.9996 12.5245 25.9996 13.0658C25.982 13.7775 25.3533 14.1734 24.7422 13.8677C24.3851 13.6873 24.3096 13.3665 24.3121 13.0081V7.8509C24.3121 7.71558 24.3524 7.57274 24.1185 7.56522C23.8846 7.5577 23.8972 7.69804 23.8972 7.8509C23.8972 12.7225 23.8972 17.5924 23.8972 22.4606C23.9044 22.6201 23.9027 22.7799 23.8922 22.9392C23.8854 23.078 23.8512 23.2142 23.7915 23.3398C23.7318 23.4654 23.6477 23.578 23.5442 23.6711C23.4407 23.7643 23.3197 23.8361 23.1882 23.8825C23.0568 23.9289 22.9174 23.949 22.7781 23.9416C22.4846 23.9498 22.1997 23.8427 21.9847 23.6435C21.7697 23.4443 21.6419 23.1688 21.6289 22.8766C21.6087 22.5859 21.6289 22.2952 21.6289 22.0045V14.1283C21.6289 14.013 21.6289 13.9103 21.4654 13.9053C21.3019 13.9003 21.2718 13.9905 21.2718 14.1308C21.2718 15.2535 21.2718 16.3736 21.2718 17.4963C21.2718 19.2505 21.2718 20.9846 21.2718 22.7262C21.2718 23.3953 20.8794 23.8639 20.2885 23.9341C20.1281 23.9578 19.9644 23.9453 19.8095 23.8975C19.6546 23.8496 19.5125 23.7677 19.3937 23.6577C19.2749 23.5477 19.1824 23.4126 19.1231 23.2622C19.0638 23.1118 19.0392 22.95 19.0512 22.7889C19.0361 20.303 19.0302 17.8221 19.0336 15.3462Z" fill="black"/>
<path d="M12.9981 11.9381C12.9981 8.09565 12.9981 4.25904 12.9981 0.428282C12.9981 0.137592 13.0685 0.0373539 13.3627 0.0624134C13.6734 0.0812049 13.985 0.0812049 14.2957 0.0624134C14.4516 0.0624134 14.5195 0.112532 14.5095 0.267901C14.5095 0.368139 14.5095 0.468377 14.5095 0.568615C14.5095 8.175 14.5095 15.7764 14.5095 23.3727C14.5095 23.8263 14.5095 23.8238 14.0543 23.8238C13.7827 23.8238 13.5111 23.8238 13.2395 23.8238C13.0534 23.8238 12.988 23.7662 12.988 23.5732C12.988 22.9317 12.988 22.2902 12.988 21.6486L12.9981 11.9381Z" fill="black"/>
<path d="M19.5114 2.02206C19.502 1.75999 19.5456 1.49871 19.6398 1.25381C19.7339 1.00892 19.8766 0.785443 20.0593 0.596716C20.2421 0.407989 20.4611 0.257884 20.7033 0.155361C20.9455 0.0528385 21.206 0 21.4692 0C21.7323 0 21.9928 0.0528385 22.235 0.155361C22.4773 0.257884 22.6963 0.407989 22.879 0.596716C23.0617 0.785443 23.2044 1.00892 23.2986 1.25381C23.3927 1.49871 23.4364 1.75999 23.4269 2.02206C23.4088 2.52737 23.1945 3.00594 22.8294 3.35701C22.4642 3.70808 21.9766 3.90427 21.4692 3.90427C20.9618 3.90427 20.4741 3.70808 20.109 3.35701C19.7438 3.00594 19.5296 2.52737 19.5114 2.02206Z" fill="black"/>
<path d="M7.4429 2.03209C7.43842 2.41723 7.31956 2.79242 7.10132 3.11031C6.88307 3.42821 6.57523 3.67456 6.21662 3.81829C5.85802 3.96202 5.46472 3.99669 5.08637 3.91791C4.70801 3.83913 4.36155 3.65045 4.0907 3.37566C3.81985 3.10088 3.63675 2.7523 3.5645 2.37393C3.49224 1.99555 3.53408 1.60432 3.68473 1.24962C3.83538 0.894911 4.0881 0.592618 4.41098 0.380883C4.73386 0.169148 5.11245 0.0574579 5.49896 0.0599074C5.75666 0.0618717 6.01143 0.11448 6.24868 0.214719C6.48594 0.314958 6.70101 0.460858 6.88159 0.64406C7.06217 0.827262 7.2047 1.04417 7.30102 1.28235C7.39734 1.52053 7.44555 1.77531 7.4429 2.03209Z" fill="black"/>
</svg>
