<svg width="24" height="24" viewBox="0 0 24 24" fill="none" xmlns="http://www.w3.org/2000/svg">
<path fill-rule="evenodd" clip-rule="evenodd" d="M19.9767 17.1466L23.3935 20.5149C24.2022 21.3122 24.2022 22.6048 23.3935 23.4021C22.5847 24.1993 21.2735 24.1993 20.4648 23.4021L17.048 20.0337C16.7784 19.768 16.7784 19.3371 17.048 19.0713L19.0004 17.1466C19.27 16.8808 19.7071 16.8808 19.9767 17.1466ZM10.3544 0C16.073 0 20.7088 4.57011 20.7088 10.2076C20.7088 15.8451 16.073 20.4152 10.3544 20.4152C4.63583 20.4152 0 15.8451 0 10.2076C0 4.57011 4.63583 0 10.3544 0ZM10.3544 2.72203C6.16079 2.72203 2.76118 6.07344 2.76118 10.2076C2.76118 14.3418 6.16079 17.6932 10.3544 17.6932C14.548 17.6932 17.9477 14.3418 17.9477 10.2076C17.9477 6.07344 14.548 2.72203 10.3544 2.72203ZM12.8668 3.86768C14.8396 4.62789 16.36 6.25019 16.9684 8.25422C17.187 8.97434 16.772 9.7328 16.0415 9.94829C15.3443 10.154 14.6116 9.79061 14.3563 9.13083L14.3231 9.03459C13.9588 7.83451 13.0442 6.85865 11.8615 6.40291C11.1514 6.12926 10.8007 5.33988 11.0783 4.6398C11.3559 3.93972 12.1566 3.59402 12.8668 3.86768Z" fill="#D3D3D3"/>
</svg>
