<svg width="26" height="26" viewBox="0 0 26 26" fill="none" xmlns="http://www.w3.org/2000/svg">
<path fill-rule="evenodd" clip-rule="evenodd" d="M24.7 15.6C25.3853 15.6 25.9468 16.1303 25.9964 16.803L26 16.9V18.2C26 22.4415 22.6144 25.8924 18.3982 25.9975L18.2 26H7.8C3.55845 26 0.107645 22.6144 0.00246991 18.3982L0 18.2V16.9C0 16.182 0.58203 15.6 1.3 15.6C1.98534 15.6 2.54681 16.1303 2.59643 16.803L2.6 16.9V18.2C2.6 21.0177 4.84109 23.312 7.63803 23.3975L7.8 23.4H18.2C21.0177 23.4 23.312 21.1589 23.3975 18.362L23.4 18.2V16.9C23.4 16.182 23.982 15.6 24.7 15.6ZM15.1963 0.854339L15.2981 0.951903L21.2731 6.92696C21.7808 7.43464 21.7808 8.25775 21.2731 8.76543C20.7885 9.25004 20.0165 9.27207 19.5058 8.83152L19.4347 8.76543L14.3 3.63025V18.2462C14.3 18.9642 13.718 19.5462 13 19.5462C12.282 19.5462 11.7 18.9642 11.7 18.2462V3.6296L6.56533 8.76543C6.05765 9.27311 5.23453 9.27311 4.72685 8.76543C4.24225 8.28083 4.22022 7.50881 4.66077 6.99808L4.72685 6.92696L10.7019 0.951903C11.9377 -0.283901 13.9211 -0.316422 15.1963 0.854339Z" fill="black"/>
</svg>
